<svg xmlns="http://www.w3.org/2000/svg" viewBox="0 0 473.364 63.668"><path d="M12.138 31.034c.029-.355.044-.77.044-1.245v-.711c0-.236.029-.503.089-.8v-3.646a6.67 6.67 0 0 1-.089-1.112v-1.111a62.73 62.73 0 0 0-.177-4.712c-.06-1.245-.133-2.475-.222-3.69a134.807 134.807 0 0 0-.312-3.601 59.605 59.605 0 0 0-.4-3.201 28.463 28.463 0 0 0-.489-2.49c.118-.178.236-.341.356-.489a.952.952 0 0 1 .444-.311c.178-.118.37-.192.578-.223.207-.029.429-.044.667-.044h4.091c.118.06.222.089.312.089h.222c.178.06.355.104.534.133.178.031.385.075.622.134.296.119.607.267.934.444.325.178.637.356.934.534.178.06.34.148.489.267.147.12.281.208.4.267.118.119.236.222.355.311a3.63 3.63 0 0 1 .667.667 2.4 2.4 0 0 1 .222.355l.178.623-2.134 24.454c.534.06 1.125.104 1.778.133.652.031 1.334.044 2.045.044h6.402c.355.06.681.089.978.089h7.025c1.837 0 3.615-.029 5.335-.089a82.918 82.918 0 0 0 4.58-.267c1.333-.118 2.445-.296 3.334-.534h3.646c.118 0 .251.044.4.134.147.089.281.193.4.311.118.178.207.342.267.489.058.148.089.282.089.4 0 .178-.06.356-.178.534-.12.178-.327.326-.623.444-.238.178-.564.297-.978.356-.416.06-.949.089-1.601.089-2.787.355-5.544.682-8.27.978-2.728.297-5.424.534-8.092.711-2.667.238-5.321.445-7.958.623-2.639.178-5.262.355-7.87.534-.06.711-.133 1.527-.222 2.445a68.245 68.245 0 0 0-.223 3.157 153.94 153.94 0 0 0-.177 7.47 91.057 91.057 0 0 0-.089 4.001v9.337a.666.666 0 0 0-.267.089c-.06.059-.12.089-.178.089h-.356c-.06 0-.089.029-.089.089h-.356l-3.557.089c-.06-.06-.149-.089-.267-.089-.06-.06-.119-.089-.178-.089h-.178l-.534.089a6.351 6.351 0 0 1-1.956-1.067 3.431 3.431 0 0 1-.756-.845 4.202 4.202 0 0 1-.489-1.111c.059-.297.103-.609.133-.934.029-.326.074-.697.134-1.111 0-.296.014-.667.044-1.111.029-.445.073-.934.133-1.467.058-.474.103-.963.133-1.467A29.83 29.83 0 0 1 12 52.913a30.926 30.926 0 0 1 .177-3.29c.118-1.245.192-2.475.223-3.69.029-1.214.073-2.386.133-3.512.058-1.125.103-2.09.133-2.89.029-.8.044-1.437.044-1.912h-.178c-.06 0-.12-.029-.178-.089H8.27a8.805 8.805 0 0 1-1.778-.177 12.529 12.529 0 0 1-2.401-.4 9.661 9.661 0 0 1-2.134-.845 3.062 3.062 0 0 1-1.512-1.601C.147 33.791 0 32.932 0 31.923v-.445a.3.3 0 0 0 .089-.223v-1.378h3.557c.118.06.222.104.311.133.089.03.192.044.311.044.118.06.236.104.356.133.118.031.236.075.355.133.118.06.251.12.4.178.147.06.281.089.4.089.178.06.34.12.489.178.147.06.311.119.489.178.356.12.726.238 1.112.355.385.12.785.238 1.2.356.414.06.845.133 1.29.222.445.089.874.133 1.29.133h.356v-.089c.058-.233.102-.531.133-.886zm43.616 22.719c.118-1.689.207-3.513.267-5.469a390.283 390.283 0 0 0 .177-12.004v-3.202c0-3.319-.015-6.505-.044-9.56-.03-3.052-.104-5.942-.222-8.67-.06-2.786-.133-5.024-.222-6.713s-.193-2.83-.312-3.423l.356-.356c.118-.058.251-.103.4-.133.147-.029.312-.044.489-.044h4.002c.118.06.222.089.311.089h.223c.178 0 .37.015.578.044.207.031.43.075.667.133.474.06.903.178 1.29.356.385.178.756.355 1.111.533.356.238.637.46.845.667.207.208.312.46.312.756v17.962a77.579 77.579 0 0 0-.089 3.735v3.824a255.694 255.694 0 0 0-.178 9.158c-.06 1.423-.104 2.846-.133 4.269-.03 1.423-.075 2.816-.133 4.179-.06 2.728-.178 4.906-.355 6.536-.178 1.631-.356 2.771-.534 3.424l-.178.622-.534.178H60.29a3.361 3.361 0 0 0-.534-.133 1.387 1.387 0 0 1-.534-.223 1.675 1.675 0 0 0-.622-.177 2.268 2.268 0 0 0-.311-.133 2.824 2.824 0 0 1-.311-.133l-.445-.178-.355-.178c-.178-.119-.356-.222-.534-.311s-.327-.193-.445-.312a1.56 1.56 0 0 1-.444-.222.595.595 0 0 0-.356-.133c.118-1.481.236-3.068.355-4.758zm22.808-11.248c.029-.236.074-.474.133-.711 0-.236.014-.458.044-.667.029-.207.074-.429.134-.667v-.311c0-.089.029-.192.089-.312v-.846c0-.089.029-.192.089-.311 0-.059.014-.147.044-.267.029-.118.044-.207.044-.267.058-.474.103-.934.133-1.378.029-.444.074-.903.133-1.378a61.36 61.36 0 0 1 .223-1.601c.089-.592.162-1.186.222-1.779l.444-.267.534-.089h4.002c.059.06.133.089.222.089h.223c.118.06.267.104.444.133a1.4 1.4 0 0 1 .534.222c.118.06.222.12.311.178.089.06.192.089.312.089.058.06.147.119.267.178.118.06.207.12.267.178.178.12.356.253.534.4.178.148.356.282.534.4.118.12.251.238.4.356.147.119.251.237.312.355l.444.534-.178.355a.788.788 0 0 0-.089.356c-.06.178-.12.342-.178.489a7.87 7.87 0 0 0-.178.489l-.178.534c-.06.178-.089.355-.089.533a17.345 17.345 0 0 0-.356 1.245c-.12.416-.238.86-.356 1.334l-.355 1.422a23.878 23.878 0 0 1-.534 2.846c-.06.416-.12.831-.178 1.245-.06.415-.12.831-.178 1.245-.06.416-.089.8-.089 1.156v1.067a7.754 7.754 0 0 0 .044 1.867c.089.593.222 1.127.4 1.601.178.416.4.787.667 1.112.267.327.578.549.934.667h.089c.296-.118.607-.236.934-.356a9.918 9.918 0 0 0 1.023-.444 15.588 15.588 0 0 0 2.801-1.823c.918-.74 1.823-1.645 2.712-2.712a43.25 43.25 0 0 0 2.534-3.157 27.006 27.006 0 0 0 2.09-3.334c.178-.296.34-.578.489-.845.147-.267.281-.548.4-.845.118-.236.236-.503.355-.8.118-.296.236-.563.356-.8.236-.533.444-1.052.622-1.556.178-.503.325-.992.445-1.467.118-.296.251-.534.4-.711a3.34 3.34 0 0 1 .578-.534l.711-.355c.236-.118.474-.207.711-.267.118 0 .236-.014.356-.044.118-.029.267-.044.444-.044a.801.801 0 0 1 .356-.089h.666a.715.715 0 0 0 .312-.089h3.913v.267c-.06.06-.089.12-.089.178v2.58c0 1.542.073 3.068.222 4.58.147 1.511.34 2.979.578 4.401.296 1.423.578 2.728.845 3.913.267 1.187.547 2.223.845 3.112.118.238.207.489.267.756.059.267.147.489.267.667.058.237.133.444.222.623l.222.444c.178.297.34.52.489.667.147.149.281.222.4.222 1.007.178 1.645.416 1.912.711.267.297.163.653-.312 1.067-.416.355-1.082.756-2 1.2-.92.445-2.061.903-3.424 1.378l-.533.267-.534.178h-3.557a8.359 8.359 0 0 1-.711-1.378 12.324 12.324 0 0 1-.623-2.001 30.602 30.602 0 0 1-.623-2.623c-.178-.918-.355-1.852-.534-2.801a824.48 824.48 0 0 1-.667-3.023c-.208-.947-.4-1.867-.578-2.756-.12.178-.253.355-.4.534a6.171 6.171 0 0 0-.4.533 3.32 3.32 0 0 1-.4.623 7.9 7.9 0 0 1-.489.534 33.44 33.44 0 0 1-1.957 2.312 39.168 39.168 0 0 1-2.223 2.223 33.896 33.896 0 0 1-2.312 1.956 27.113 27.113 0 0 1-2.312 1.601 10.62 10.62 0 0 1-1.601.889c-.533.238-1.038.445-1.512.623a23.06 23.06 0 0 0-1.422.222 7.716 7.716 0 0 1-1.423.133l-3.557.089c-.475-.06-.934-.134-1.378-.223a16.667 16.667 0 0 1-1.29-.311 4.748 4.748 0 0 1-1.201-.756 7.133 7.133 0 0 1-1.111-1.201 3.97 3.97 0 0 1-.534-1.2 79.837 79.837 0 0 1-.355-1.378c-.06-.474-.12-.978-.178-1.512a15.12 15.12 0 0 1-.089-1.689v-1.067c0-.356.029-.711.089-1.067a12.705 12.705 0 0 1 .177-2.134v-.934c0-.325.029-.607.089-.845v-.355c0-.118.029-.236.089-.356v-.799c.063-.182.108-.389.138-.626zm50.952 6.758c-1.454-3.201-2.505-5.602-3.157-7.203a97.67 97.67 0 0 0-1.868-4.001c-.533-1.067-1.009-1.867-1.423-2.401l-.267-.356-.355-.444c-.06-.059-.12-.118-.178-.178l-.178-.178c-.06 0-.12-.029-.178-.089a7.469 7.469 0 0 1-.178-.178 1.14 1.14 0 0 0-.312-.355 1.922 1.922 0 0 1-.4-.445c-.297-.296-.445-.547-.445-.756 0-.207.147-.37.445-.489a6.674 6.674 0 0 1 1.067-.312 6.82 6.82 0 0 1 1.423-.133h4.712c.058.06.133.089.222.089h.223c.296.06.607.104.934.133.325.031.667.104 1.022.223.296.06.578.133.845.222s.518.193.756.311c.296.06.623.4.978 1.022.356.623.77 1.498 1.245 2.624.474 1.127.963 2.327 1.467 3.601.503 1.276 1.022 2.594 1.556 3.957l.089.356.178.355a99.332 99.332 0 0 0 1.467 3.957 102.16 102.16 0 0 1 1.378 3.69 103.7 103.7 0 0 1 .889 2.134l.489-.489c.147-.147.281-.311.4-.489.118-.178.251-.37.4-.578.147-.207.312-.4.489-.578a42.28 42.28 0 0 0 1.423-2.09 54.652 54.652 0 0 0 2.801-4.935c.445-.889.874-1.778 1.29-2.667a55.733 55.733 0 0 0 1.29-3.157c.385-1.037.725-2.03 1.022-2.979.296-1.007.518-1.926.667-2.757.147-.829.222-1.601.222-2.312v-.445c-.06-.059-.089-.118-.089-.178v-.534c-.06-.058-.089-.118-.089-.178v-.178c.118-.296.251-.503.4-.623.147-.118.341-.147.578-.089h3.557c.236.06.474.148.711.267.236.12.474.327.711.623.118.12.222.253.311.4.089.149.192.312.311.489.059.12.147.267.267.444.118.178.207.356.267.534l.534 1.067c.178.355.325.711.444 1.067.059.12.103.253.133.4.029.149.074.282.134.4a2.008 2.008 0 0 0 .177.8c.058.238.103.475.133.711.029.237.044.444.044.623v.356c-.06.06-.089.12-.089.178v.178l-.178.622a24.803 24.803 0 0 1-1.112 2.134 29.606 29.606 0 0 1-1.556 2.401 50.196 50.196 0 0 1-1.912 2.667 57.505 57.505 0 0 1-2.179 2.668c-.297.416-.608.815-.934 1.2-.327.386-.638.756-.934 1.112-.178.178-.356.371-.534.578-.178.208-.327.4-.445.578l-.533.534-.534.534a72.726 72.726 0 0 1-3.646 3.734c-1.187 1.127-2.312 2.075-3.379 2.846-1.067.889-1.927 1.497-2.579 1.823-.653.325-1.127.34-1.423.044l-3.557.089c-2.185-4.799-4.008-8.8-5.46-12.001zm38.28-18.941l-.089-.089v-.178l.267-.711a.882.882 0 0 1 .312-.222c.089-.029.222-.044.4-.044h3.557c.178 0 .385.015.622.044.236.03.474.104.711.222.296.06.578.164.845.311.267.149.519.282.756.4a.65.65 0 0 0 .178.133.372.372 0 0 0 .178.044c0 .06.029.104.089.133a.375.375 0 0 0 .178.044.65.65 0 0 0 .178.133.375.375 0 0 0 .178.044.66.66 0 0 0 .178.134c.058.03.118.075.178.133.118.06.207.12.267.178.059.06.147.089.267.089.058.06.133.12.222.178.089.06.163.12.222.178.178.06.341.133.489.222.147.089.281.193.4.311.118.06.192.208.223.445.029.237.074.534.133.889v.534c0 .178.029.386.089.622v3.291c-.06.355-.089.711-.089 1.067v1.067a58.94 58.94 0 0 0-.177 4.624l-.089.445v.444a50.905 50.905 0 0 0-.178 4.268c-.06.711-.089 1.394-.089 2.045v3.824c0 .297.014.578.044.845.029.267.074.52.133.756v.267l.089.355v.356l.089.355v.359l-.267.534c-.06.059-.148.133-.267.222-.12.089-.238.163-.355.223l-.267.178-.178.089h-4.358l-.355-.089a2.158 2.158 0 0 0-.711-.222 1.443 1.443 0 0 1-.623-.223 3.043 3.043 0 0 1-.311-.178.543.543 0 0 0-.311-.089l-.178-.178-.178-.178-.267-.178-.089-.267c-.06-.178-.104-.445-.134-.8-.03-.355-.044-.8-.044-1.334v-11.65c-.06-1.718-.119-3.348-.178-4.891-.06-1.541-.148-3.023-.267-4.446-.12-1.423-.297-2.535-.534-3.335-.237-.8-.534-1.289-.889-1.467v-.266zm5.158-19.296h-3.557l.267-.089h4.18c.296 0 .607.031.934.089.325.06.636.148.934.267.296.12.563.238.8.355.236.12.474.238.711.356.236.12.445.237.623.355.178.12.296.238.355.356l.178.355v8.359l-.355.267c-.06.06-.164.089-.311.089h-4.668a2.008 2.008 0 0 1-.8-.177 22.318 22.318 0 0 1-.845-.355 7.676 7.676 0 0 1-.845-.445 1.658 1.658 0 0 1-.534-.667 1.84 1.84 0 0 1-.178-.756l-.623-8.448h3.557l.177.089zm18.495 11.116c0-1.896-.015-3.631-.044-5.202a144.49 144.49 0 0 0-.133-4.135c-.06-1.185-.12-2.252-.178-3.201-.06-.948-.119-1.778-.178-2.49a20.76 20.76 0 0 0-.222-1.823c-.089-.503-.164-.934-.222-1.289a9.722 9.722 0 0 1-.134-.845 6.776 6.776 0 0 1-.044-.756.869.869 0 0 1-.089-.4c0-.147.029-.311.089-.489l.223-.444c.089-.177.163-.385.222-.623a.566.566 0 0 1 .222-.133c.089-.029.192-.074.312-.133.118-.059.251-.103.4-.133.145-.031.279-.046.398-.046h4.002c.118.06.222.089.311.089h.222c.178.06.356.104.534.133.178.03.356.104.534.222.414.178.8.356 1.156.534.356.178.711.416 1.067.711.355.237.651.489.889.756.236.267.385.549.444.845v.133c0 .031.029.075.089.133v1.601c0 .831-.015 1.867-.044 3.112a94.47 94.47 0 0 1-.222 4.357 76.52 76.52 0 0 0-.177 5.246c-.06.949-.104 1.898-.133 2.846-.031.949-.075 1.927-.134 2.935a45.522 45.522 0 0 0-.177 4.001 50.418 50.418 0 0 0-.177 4.09c-.06 1.423-.12 2.846-.178 4.268a99.212 99.212 0 0 0-.089 4.18 90.078 90.078 0 0 0-.089 3.957v3.69c0 1.305.014 2.55.044 3.735.029 1.187.073 2.283.133 3.29.058 1.009.133 1.868.222 2.579s.192 1.274.311 1.689a.59.59 0 0 1-.133.355.901.901 0 0 1-.311.267.814.814 0 0 1-.445.222 3.304 3.304 0 0 1-.533.044l-3.557.089c-.06-.06-.148-.089-.267-.089-.06-.06-.12-.089-.178-.089h-.534c-.06-.06-.12-.089-.178-.089h-.178a6.23 6.23 0 0 0-.667-.133 2.217 2.217 0 0 1-.667-.223 2.328 2.328 0 0 0-.312-.133.95.95 0 0 0-.311-.044.545.545 0 0 0-.222-.133.59.59 0 0 1-.223-.133l-.444-.267v-.267c-.06-.355-.12-.741-.178-1.156a8.678 8.678 0 0 1-.089-1.245c-.06-.474-.089-.934-.089-1.378v-3.779a17.301 17.301 0 0 1 .178-2.49v-1.6c0-.236.029-.474.089-.711v-2.133c0-.236.029-.503.089-.8V22.142zm54.376 12.449c.029 0 .073-.029.133-.089h.179a.981.981 0 0 0 .311-.044c.089-.029.192-.073.312-.133a.571.571 0 0 1 .267-.133.567.567 0 0 0 .267-.133h3.558l.089.534v.178c0 .06.028.148.089.267v.445c.058.533.118 1.171.178 1.912.059.742.118 1.556.178 2.445.059.949.133 1.883.223 2.801.089.92.191 1.882.311 2.89a43.87 43.87 0 0 0 .534 4.224c.235 1.334.533 2.594.889 3.779.296 1.245.696 2.165 1.2 2.756.503.593 1.052.889 1.646.889h.267a1.3 1.3 0 0 1 .4.4c.089.148.103.282.044.4-.06.12-.163.238-.311.356a7.397 7.397 0 0 1-.489.355c-.178.118-.371.236-.578.356-.208.118-.46.236-.756.355l-.355.178c-.12.059-.237.118-.355.178a3.105 3.105 0 0 0-.445.178c-.119.058-.237.118-.355.178a4.303 4.303 0 0 1-.489.133 1.546 1.546 0 0 0-.399.133c-.179 0-.342.014-.489.044a1.517 1.517 0 0 0-.4.134 2.257 2.257 0 0 1-.711.222 5.24 5.24 0 0 1-.623.044l-3.557.089-.533-.089-.179-.178a4.888 4.888 0 0 1-.444-.979 26.643 26.643 0 0 1-.355-1.156 32.84 32.84 0 0 0-.223-1.334 48.633 48.633 0 0 0-.311-1.512l-.09-.178v-.267c-.06-.356-.119-.696-.178-1.022a4.894 4.894 0 0 0-.267-.934 14.06 14.06 0 0 1-1.601 1.201c-.594.386-1.245.756-1.956 1.111a32.671 32.671 0 0 1-4.536 1.779 41.81 41.81 0 0 1-4.713 1.156c-.653.059-1.305.133-1.956.222-.653.089-1.305.163-1.957.223a36.99 36.99 0 0 1-3.646.177l-3.557.089a36.504 36.504 0 0 0-1.689-.133 23.87 23.87 0 0 1-1.512-.133c-.475-.06-.934-.134-1.378-.223a34.622 34.622 0 0 0-1.2-.222c-.889-.296-1.645-.667-2.268-1.111-.623-.445-1.112-.963-1.467-1.556a5.07 5.07 0 0 1-.889-1.734 7.242 7.242 0 0 1-.267-2c0-.534.044-1.067.134-1.601.089-.534.222-1.096.4-1.689a30.09 30.09 0 0 1 .623-1.689c.236-.592.534-1.186.889-1.779a28.139 28.139 0 0 1 3.023-4.046 46.013 46.013 0 0 1 4.001-3.957 44.427 44.427 0 0 1 4.624-3.29 25.556 25.556 0 0 1 4.802-2.312c.474-.178.963-.34 1.467-.489a9.463 9.463 0 0 1 1.467-.311 8.036 8.036 0 0 1 1.467-.222c.503-.029.992-.044 1.467-.044h3.558c.829 0 1.63.089 2.4.267a14.1 14.1 0 0 1 2.224.711c.651.297 1.303.697 1.956 1.2a10.993 10.993 0 0 1 1.778 1.734l.129-.001zm-3.38 13.027a3.08 3.08 0 0 0 .045-.578v-.311c0-.089.029-.192.09-.311v-.622c0-.356-.016-.741-.045-1.156a18.925 18.925 0 0 0-.134-1.245c-.06-.414-.104-.83-.134-1.245-.03-.414-.074-.83-.133-1.245a6.4 6.4 0 0 1-.134-.667 7.134 7.134 0 0 0-.133-.667 3.178 3.178 0 0 1-.134-.578 4.654 4.654 0 0 1-.045-.667 15.3 15.3 0 0 0-1.867-2.178 7.822 7.822 0 0 0-2.134-1.467 18.088 18.088 0 0 0-1.601-.623 7.943 7.943 0 0 0-1.512-.356 9.319 9.319 0 0 0-2.045.4c-.653.208-1.305.431-1.957.667a29.49 29.49 0 0 0-2.534 1.245c-.742.416-1.438.86-2.09 1.334l-.533.534-.534.444a15.003 15.003 0 0 0-1.645 1.957 17.49 17.49 0 0 0-1.378 2.312 13.847 13.847 0 0 0-.978 2.534 20.15 20.15 0 0 0-.534 2.534.788.788 0 0 0-.089.356v1.823c0 .267.029.549.089.845a35.419 35.419 0 0 1 .356 1.601 6.58 6.58 0 0 0 1.156 1.867c.474.534 1.096.979 1.868 1.334.533.238 1.096.431 1.689.578.592.148 1.185.253 1.778.311h.534a.724.724 0 0 0 .222-.044.75.75 0 0 1 .222-.044c.474-.118.979-.236 1.512-.355a15.932 15.932 0 0 0 1.601-.445 19.854 19.854 0 0 0 3.068-1.2 31.838 31.838 0 0 0 2.979-1.645 19.858 19.858 0 0 0 2.712-2.09c.8-.741 1.556-1.556 2.268-2.445v-.089c.06-.121.105-.254.134-.403zm23.743 6.402c.028-.74.073-1.496.133-2.268v-1.111c0-.385.029-.756.089-1.111v-4.002a4.692 4.692 0 0 1-.089-.934V41.97a3.258 3.258 0 0 1-.089-.8v-.8a22.733 22.733 0 0 1-.178-2.757v-2.312c0-.533.014-1.007.044-1.422.029-.414.074-.741.134-.979.118-.296.236-.518.355-.667.118-.147.296-.223.534-.223h.622l.267-.089h4.18c.711 0 1.334.06 1.867.178.533.12.918.327 1.156.623.296.238.518.578.667 1.022.146.445.222.934.222 1.467 0 .534-.044 1.112-.133 1.734a85.674 85.674 0 0 1-.312 2 368.39 368.39 0 0 1-.4 1.957 41.531 41.531 0 0 0-.399 2.223c.711-.889 1.407-1.748 2.089-2.579a413.11 413.11 0 0 1 1.912-2.312 19.66 19.66 0 0 0 1.601-1.956c.414-.592.74-1.096.979-1.512l-.089-.267v-.355c0-.178.014-.355.044-.534.029-.178.074-.385.134-.622.059-.178.133-.385.222-.623.089-.236.163-.474.223-.711.178-.474.414-.903.711-1.29.297-.385.623-.785.979-1.2a5.33 5.33 0 0 1 1.067-.845c.355-.207.711-.312 1.066-.312h3.736c.059 0 .118.031.178.089.118.06.207.089.267.089a.42.42 0 0 1 .178.044.376.376 0 0 0 .178.045c0 .06.029.104.089.133.059.03.118.044.179.044.117 1.482.296 2.787.533 3.913.236 1.126.503 2.045.8 2.756.296.711.623 1.32.979 1.823.355.504.711.904 1.067 1.2.236.178.474.327.711.445.236.119.474.208.712.267.235.06.458.104.667.133.207.031.399.044.577.044h.357c.058.06.118.089.178.089h.178c.118.06.191.134.222.223.029.089.045.193.045.311a2.372 2.372 0 0 1-.533.8 2.224 2.224 0 0 1-.89.534 3.71 3.71 0 0 1-1.067.355c-.355.06-.771.089-1.244.089h-4.624c-.178 0-.356-.029-.534-.089-.178-.058-.355-.118-.533-.178a8.659 8.659 0 0 1-2.001-.578 15.06 15.06 0 0 1-1.822-.934l-.089-.089c-.061 0-.12-.029-.179-.089v.089c-.06 0-.089.031-.089.089-.119.178-.253.371-.399.578-.149.208-.282.4-.4.578-.178.238-.342.445-.489.623a6.182 6.182 0 0 0-.4.534c-.119.178-.253.371-.399.578-.149.208-.282.4-.4.578-.178.238-.342.445-.489.623a6.182 6.182 0 0 0-.4.534 56.387 56.387 0 0 0-2.045 3.112 83.487 83.487 0 0 0-1.956 3.379 22.719 22.719 0 0 0-1.689 3.646 29.364 29.364 0 0 0-1.156 4.09h-.267l-.267.089-.356.089h-3.824c-.476-.06-.92-.119-1.334-.178a2.747 2.747 0 0 1-1.156-.445c-.355-.236-.578-.489-.667-.756-.089-.267-.044-.547.134-.845v-.089c.05-.825.094-1.61.125-2.352zm69.004-19.429c.029 0 .073-.029.133-.089h.179a.981.981 0 0 0 .311-.044c.089-.029.192-.073.312-.133a.571.571 0 0 1 .267-.133.567.567 0 0 0 .267-.133h3.558l.089.534v.178c0 .06.028.148.089.267v.445c.058.533.118 1.171.178 1.912.059.742.118 1.556.178 2.445.059.949.133 1.883.223 2.801.089.92.191 1.882.311 2.89a43.87 43.87 0 0 0 .534 4.224c.235 1.334.533 2.594.889 3.779.296 1.245.696 2.165 1.2 2.756.503.593 1.052.889 1.646.889h.267a1.3 1.3 0 0 1 .4.4c.089.148.103.282.044.4-.06.12-.163.238-.311.356a7.397 7.397 0 0 1-.489.355c-.178.118-.371.236-.578.356-.208.118-.46.236-.756.355l-.355.178c-.12.059-.237.118-.355.178a3.105 3.105 0 0 0-.445.178c-.119.058-.237.118-.355.178a4.303 4.303 0 0 1-.489.133 1.546 1.546 0 0 0-.399.133c-.179 0-.342.014-.489.044a1.517 1.517 0 0 0-.4.134 2.257 2.257 0 0 1-.711.222 5.24 5.24 0 0 1-.623.044l-3.557.089-.533-.089-.179-.178a4.888 4.888 0 0 1-.444-.979 26.643 26.643 0 0 1-.355-1.156 32.84 32.84 0 0 0-.223-1.334 48.633 48.633 0 0 0-.311-1.512l-.09-.178v-.267c-.06-.356-.119-.696-.178-1.022a4.894 4.894 0 0 0-.267-.934 14.06 14.06 0 0 1-1.601 1.201c-.593.386-1.245.756-1.956 1.111a32.708 32.708 0 0 1-4.535 1.779 41.81 41.81 0 0 1-4.713 1.156c-.653.059-1.305.133-1.956.222-.653.089-1.305.163-1.956.223a37.17 37.17 0 0 1-3.646.177l-3.557.089a36.613 36.613 0 0 0-1.689-.133 23.936 23.936 0 0 1-1.512-.133c-.476-.06-.934-.134-1.378-.223a34.645 34.645 0 0 0-1.201-.222c-.889-.296-1.645-.667-2.268-1.111a5.218 5.218 0 0 1-1.467-1.556 5.09 5.09 0 0 1-.89-1.734 7.242 7.242 0 0 1-.267-2c0-.534.045-1.067.134-1.601.089-.534.222-1.096.4-1.689a30.85 30.85 0 0 1 .622-1.689c.236-.592.533-1.186.89-1.779a28.055 28.055 0 0 1 3.022-4.046 46.17 46.17 0 0 1 4.002-3.957 44.427 44.427 0 0 1 4.624-3.29 25.556 25.556 0 0 1 4.802-2.312c.474-.178.963-.34 1.467-.489a9.45 9.45 0 0 1 1.468-.311 8.036 8.036 0 0 1 1.467-.222c.503-.029.992-.044 1.468-.044h3.557c.829 0 1.63.089 2.4.267s1.512.416 2.224.711c.651.297 1.303.697 1.956 1.2a10.993 10.993 0 0 1 1.778 1.734l.128-.001zm-3.379 13.027c.029-.147.044-.34.044-.578v-.311c0-.089.029-.192.089-.311v-.622c0-.356-.015-.741-.044-1.156a18.925 18.925 0 0 0-.134-1.245 16.9 16.9 0 0 1-.133-1.245c-.031-.414-.075-.83-.134-1.245a6.4 6.4 0 0 1-.134-.667 6.825 6.825 0 0 0-.133-.667 3.264 3.264 0 0 1-.134-.578 4.66 4.66 0 0 1-.044-.667 15.43 15.43 0 0 0-1.867-2.178 7.842 7.842 0 0 0-2.135-1.467 17.969 17.969 0 0 0-1.601-.623 7.943 7.943 0 0 0-1.512-.356 9.319 9.319 0 0 0-2.045.4c-.653.208-1.305.431-1.956.667-.949.416-1.794.831-2.534 1.245-.742.416-1.438.86-2.09 1.334l-.534.534-.533.444a15.003 15.003 0 0 0-1.645 1.957 17.387 17.387 0 0 0-1.379 2.312 13.92 13.92 0 0 0-.978 2.534 20.15 20.15 0 0 0-.534 2.534.788.788 0 0 0-.089.356v1.823c0 .267.029.549.089.845a35.419 35.419 0 0 1 .356 1.601 6.603 6.603 0 0 0 1.156 1.867c.474.534 1.097.979 1.867 1.334.534.238 1.097.431 1.689.578.592.148 1.186.253 1.779.311h.534a.718.718 0 0 0 .222-.044.755.755 0 0 1 .223-.044c.474-.118.979-.236 1.512-.355a16.006 16.006 0 0 0 1.601-.445 19.815 19.815 0 0 0 3.068-1.2 32.093 32.093 0 0 0 2.979-1.645 19.797 19.797 0 0 0 2.712-2.09 22.277 22.277 0 0 0 2.268-2.445v-.089c.059-.121.103-.254.134-.403zm22.052-15.873a.387.387 0 0 1-.044-.178c-.06 0-.089-.029-.089-.089V31.3l-.089-.533.267-.711a.775.775 0 0 1 .4-.222c.147-.029.311-.045.489-.045h4.002a.3.3 0 0 0 .223.089h.222c.118.06.268.104.445.133.178.03.355.075.533.133.118.06.223.104.312.133.089.031.191.075.311.133.059.06.147.104.268.133a.592.592 0 0 1 .267.134c.118.06.222.119.311.178.089.06.163.089.223.089.118.06.223.12.312.178.089.06.162.12.222.178l.445.356.267.355a.68.68 0 0 1 .267.223c.059.089.118.222.178.4.059.178.103.386.134.623.029.237.044.504.044.8 0 .534-.03 1.111-.089 1.734-.06.623-.148 1.29-.267 2.001l-.178 1.067c-.06.355-.089.742-.089 1.156-.06.356-.12.727-.178 1.112-.06.386-.12.786-.178 1.2l-.089.178v.089c1.303-2.015 2.563-3.66 3.778-4.936 1.215-1.274 2.415-2.208 3.602-2.801 1.837-.948 3.424-1.659 4.758-2.134 1.334-.474 2.415-.711 3.245-.711h4.892c.89 0 1.659.312 2.313.934.651.623 1.186 1.556 1.601 2.801.414 1.245.8 2.55 1.156 3.913.355 1.364.651 2.816.889 4.357v.267c0 .12.029.208.089.267 0 .12.015.223.045.312.029.089.044.193.044.311v.267c0 .12.029.208.089.267 0 .119.015.222.045.311.029.089.044.193.044.312.179 1.126.386 2.209.623 3.246.236 1.038.474 2 .711 2.89.236.949.519 1.705.845 2.268.325.564.696.934 1.112 1.112.296.119.533.252.711.4.178.149.296.282.355.4.118.178.178.342.178.489 0 .149-.03.282-.089.4-.119.237-.297.46-.533.667-.237.208-.533.37-.89.489a2.292 2.292 0 0 1-.533.267 2.145 2.145 0 0 0-.533.267c-.238.058-.445.133-.623.222s-.355.163-.533.222c-.237.059-.46.103-.667.134-.208.029-.4.073-.578.133h-.222a.707.707 0 0 0-.312.089h-.445l-3.558.089a6.28 6.28 0 0 0-.667-.133 1.7 1.7 0 0 1-.488-.133c-.179-.06-.298-.149-.356-.267a.981.981 0 0 1-.089-.444c-.06-.416-.164-.918-.311-1.512a46.921 46.921 0 0 1-.489-2.223c-.06-.474-.148-.934-.267-1.378a10.74 10.74 0 0 1-.268-1.289 23.961 23.961 0 0 1-.311-1.423 24.324 24.324 0 0 0-.312-1.423l-.178-.711-.178-.711c-.06-.296-.12-.578-.178-.845-.06-.267-.12-.518-.178-.756a30.239 30.239 0 0 1-.489-1.601 31.193 31.193 0 0 1-.4-1.601c-.119-.474-.237-.934-.355-1.378a22.32 22.32 0 0 0-.355-1.2c-.238-.889-.534-1.645-.89-2.268s-.742-1.141-1.156-1.556a1.552 1.552 0 0 0-.222-.178 1.39 1.39 0 0 1-.223-.178 1 1 0 0 1-.267-.178 1.096 1.096 0 0 0-.267-.178c-.12.06-.253.12-.4.178a1.2 1.2 0 0 0-.4.267c-.533.297-1.053.653-1.556 1.067a13.12 13.12 0 0 0-1.468 1.423 27.5 27.5 0 0 0-2.534 3.157 76.594 76.594 0 0 0-2.445 3.779 143.817 143.817 0 0 0-2.223 4.268 36.986 36.986 0 0 0-1.868 4.446c-.06.178-.133.355-.222.533a4.037 4.037 0 0 0-.223.534.545.545 0 0 0-.133.222.7.7 0 0 0-.045.223l-.134.267a.617.617 0 0 0-.044.267.877.877 0 0 1-.267.312c-.12.089-.238.193-.355.311a.556.556 0 0 1-.223.133.695.695 0 0 1-.223.044h-4.359c-.297 0-.577-.044-.845-.133a5.64 5.64 0 0 1-.756-.311 1.333 1.333 0 0 1-.533-.445 1.093 1.093 0 0 1-.178-.623v-4.312c0-.503.029-1.022.089-1.556v-3.734c0-.236.029-.503.089-.8v-2.356c0-.325.029-.636.089-.934v-2.713c0-.267.029-.548.089-.845v-3.467a4.256 4.256 0 0 1-.089-.845v-.756c-.06-.474-.104-.889-.133-1.245a5.927 5.927 0 0 0-.134-.889v-.089a.783.783 0 0 1-.133-.184zm60.555 1.601a.71.71 0 0 0 .311-.089c.059 0 .147-.014.268-.044.118-.029.207-.044.267-.044h.845a.718.718 0 0 0 .312-.089h.488c.147 0 .312-.029.489-.089h1.511a.978.978 0 0 0 .444-.089h4.446c.296 0 .578.016.845.044.267.031.519.075.756.134l.623.355c-.178.534-.534.978-1.067 1.334-.533.355-1.245.623-2.134.8-.89.237-2.121.4-3.69.489-1.571.089-3.483.134-5.735.134v22.942a.592.592 0 0 1-.134.355.81.81 0 0 1-.4.267 3.474 3.474 0 0 1-.578.133 4.84 4.84 0 0 1-.667.044l-3.557.089h-.533l-.533-.089c-.356-.12-.698-.222-1.023-.312a8.737 8.737 0 0 1-.934-.311 2.248 2.248 0 0 1-.578-.4c-.148-.149-.222-.282-.222-.4 0-.236.014-.667.044-1.29.029-.622.074-1.467.134-2.534a85.07 85.07 0 0 0 .312-3.201c.089-1.125.162-2.312.222-3.557v-.356l.089-.355a995.487 995.487 0 0 1 .357-6.67c.117-1.007.191-1.881.222-2.623.029-.741.045-1.319.045-1.734h-.178c-.061 0-.089-.029-.089-.089h-.535c-.06 0-.089-.029-.089-.089h-2.578c-.771 0-1.497-.029-2.178-.089a13.591 13.591 0 0 1-1.823-.267c-.594-.118-1.022-.414-1.289-.889-.268-.474-.4-1.096-.4-1.868v-.178l.089-.267v-.445l.267-.267.355-.089h3.558c.117 0 .28.015.488.044.207.03.43.104.667.222a1.624 1.624 0 0 0 .711.177c.178.06.325.104.444.134.118.03.267.075.444.133.296.06.578.133.845.222.268.089.548.193.845.311.059 0 .104-.014.134-.044.029-.029.073-.044.134-.044.058-.058.117-.089.178-.089.058-.236.103-.489.133-.756.029-.267.045-.547.045-.845v-2.845a1.796 1.796 0 0 1-.089-.578v-1.734a1.796 1.796 0 0 1-.089-.578v-.578a8.752 8.752 0 0 1-.178-1.778v-.978a.856.856 0 0 1-.089-.4v-.489a185.16 185.16 0 0 0-.357-3.556 12.86 12.86 0 0 1-.089-1.423v-.978a.693.693 0 0 1 .178-.133.4.4 0 0 1 .178-.044c0-.059.029-.103.09-.133a.395.395 0 0 1 .178-.045c.118-.058.235-.103.355-.133.118-.029.236-.074.355-.133h3.557c.296 0 .592.06.89.178.296.12.622.267.979.445.178.06.34.148.488.267.147.12.312.208.489.267.178.119.355.222.533.311.179.089.356.193.534.311l.178.178.178.089c.178.119.355.267.533.444.179.178.296.386.356.623.118.238.191.504.222.8.029.297.045.623.045.978 0 .356-.016.742-.045 1.156-.03.416-.075.86-.133 1.334a5.768 5.768 0 0 0-.178 1.422 5.804 5.804 0 0 0-.134.711 6.05 6.05 0 0 1-.134.711c-.06.416-.119.815-.178 1.201-.06.386-.119.786-.178 1.2-.06.416-.104.815-.133 1.201a15.01 15.01 0 0 0-.045 1.2c-.06.178-.089.342-.089.489v2.801c0 .178.029.356.089.534h-3.557v-.089h3.557c.117.002.222.002.31.002zm47.84 1.245c.029 0 .073-.029.133-.089h.179a.981.981 0 0 0 .311-.044c.089-.029.192-.073.312-.133a.571.571 0 0 1 .267-.133.567.567 0 0 0 .267-.133h3.558l.089.534v.178c0 .06.028.148.089.267v.445c.058.533.118 1.171.178 1.912.059.742.118 1.556.178 2.445.059.949.133 1.883.223 2.801.089.92.191 1.882.311 2.89a43.87 43.87 0 0 0 .534 4.224c.235 1.334.533 2.594.889 3.779.296 1.245.696 2.165 1.2 2.756.503.593 1.052.889 1.646.889h.267a1.3 1.3 0 0 1 .4.4c.089.148.103.282.044.4-.06.12-.163.238-.311.356a7.397 7.397 0 0 1-.489.355c-.178.118-.371.236-.578.356-.208.118-.46.236-.756.355l-.355.178c-.12.059-.237.118-.355.178a3.105 3.105 0 0 0-.445.178c-.119.058-.237.118-.355.178a4.303 4.303 0 0 1-.489.133 1.546 1.546 0 0 0-.399.133c-.179 0-.342.014-.489.044a1.517 1.517 0 0 0-.4.134 2.257 2.257 0 0 1-.711.222 5.24 5.24 0 0 1-.623.044l-3.557.089-.533-.089-.179-.178a4.888 4.888 0 0 1-.444-.979 26.643 26.643 0 0 1-.355-1.156 32.84 32.84 0 0 0-.223-1.334 48.633 48.633 0 0 0-.311-1.512l-.09-.178v-.267c-.06-.356-.119-.696-.178-1.022a4.894 4.894 0 0 0-.267-.934 14.06 14.06 0 0 1-1.601 1.201c-.593.386-1.245.756-1.956 1.111a32.708 32.708 0 0 1-4.535 1.779 41.81 41.81 0 0 1-4.713 1.156c-.653.059-1.305.133-1.956.222-.653.089-1.305.163-1.956.223a37.17 37.17 0 0 1-3.646.177l-3.557.089a36.613 36.613 0 0 0-1.689-.133 23.936 23.936 0 0 1-1.512-.133c-.476-.06-.934-.134-1.378-.223a34.645 34.645 0 0 0-1.201-.222c-.889-.296-1.645-.667-2.268-1.111a5.218 5.218 0 0 1-1.467-1.556 5.09 5.09 0 0 1-.89-1.734 7.242 7.242 0 0 1-.267-2c0-.534.045-1.067.134-1.601.089-.534.222-1.096.4-1.689a30.85 30.85 0 0 1 .622-1.689c.236-.592.533-1.186.89-1.779a28.055 28.055 0 0 1 3.022-4.046 46.17 46.17 0 0 1 4.002-3.957 44.427 44.427 0 0 1 4.624-3.29 25.556 25.556 0 0 1 4.802-2.312c.474-.178.963-.34 1.467-.489a9.45 9.45 0 0 1 1.468-.311 8.036 8.036 0 0 1 1.467-.222c.503-.029.992-.044 1.468-.044h3.557c.829 0 1.63.089 2.4.267s1.512.416 2.224.711c.651.297 1.303.697 1.956 1.2a10.993 10.993 0 0 1 1.778 1.734l.128-.001zm-3.379 13.027c.029-.147.044-.34.044-.578v-.311c0-.089.029-.192.089-.311v-.622c0-.356-.015-.741-.044-1.156a18.925 18.925 0 0 0-.134-1.245 16.9 16.9 0 0 1-.133-1.245c-.031-.414-.075-.83-.134-1.245a6.4 6.4 0 0 1-.134-.667 6.825 6.825 0 0 0-.133-.667 3.264 3.264 0 0 1-.134-.578 4.66 4.66 0 0 1-.044-.667 15.43 15.43 0 0 0-1.867-2.178 7.842 7.842 0 0 0-2.135-1.467 17.969 17.969 0 0 0-1.601-.623 7.943 7.943 0 0 0-1.512-.356 9.319 9.319 0 0 0-2.045.4c-.653.208-1.305.431-1.956.667-.949.416-1.794.831-2.534 1.245-.742.416-1.438.86-2.09 1.334l-.534.534-.533.444a15.003 15.003 0 0 0-1.645 1.957 17.387 17.387 0 0 0-1.379 2.312 13.92 13.92 0 0 0-.978 2.534 20.15 20.15 0 0 0-.534 2.534.788.788 0 0 0-.089.356v1.823c0 .267.029.549.089.845a35.419 35.419 0 0 1 .356 1.601 6.603 6.603 0 0 0 1.156 1.867c.474.534 1.097.979 1.867 1.334.534.238 1.097.431 1.689.578.592.148 1.186.253 1.779.311h.534a.718.718 0 0 0 .222-.044.755.755 0 0 1 .223-.044c.474-.118.979-.236 1.512-.355a16.006 16.006 0 0 0 1.601-.445 19.815 19.815 0 0 0 3.068-1.2 32.093 32.093 0 0 0 2.979-1.645 19.797 19.797 0 0 0 2.712-2.09 22.277 22.277 0 0 0 2.268-2.445v-.089c.059-.121.103-.254.134-.403z" fill="#0F8DBB"/></svg>