<?xml version="1.0" encoding="utf-8"?>
<!-- Generator: Adobe Illustrator 18.1.1, SVG Export Plug-In . SVG Version: 6.00 Build 0)  -->
<svg version="1.1" id="Layer_1" xmlns="http://www.w3.org/2000/svg" xmlns:xlink="http://www.w3.org/1999/xlink" x="0px" y="0px"
	 viewBox="0 0 473.364 63.668" enable-background="new 0 0 473.364 63.668" xml:space="preserve">
<g>
	<path fill="#0F8DBB" d="M12.138,31.034c0.029-0.355,0.044-0.77,0.044-1.245c0-0.236,0-0.474,0-0.711c0-0.236,0.029-0.503,0.089-0.8
		c0-0.236,0-0.503,0-0.8c0-0.296,0-0.592,0-0.89c0-0.296,0-0.607,0-0.934c0-0.325,0-0.667,0-1.022
		c-0.06-0.356-0.089-0.725-0.089-1.112c0-0.385,0-0.755,0-1.111c0-0.77-0.015-1.556-0.044-2.356c-0.03-0.8-0.075-1.585-0.133-2.356
		c-0.06-1.245-0.133-2.475-0.222-3.69c-0.089-1.214-0.193-2.415-0.312-3.601c-0.119-1.185-0.252-2.252-0.4-3.201
		c-0.148-0.948-0.311-1.779-0.489-2.49c0.118-0.178,0.236-0.341,0.356-0.489c0.118-0.147,0.267-0.251,0.444-0.311
		c0.178-0.118,0.37-0.192,0.578-0.223c0.207-0.029,0.429-0.044,0.667-0.044h3.557c0.118,0,0.223,0,0.312,0s0.163,0,0.222,0
		c0.118,0.06,0.222,0.089,0.312,0.089c0.089,0,0.162,0,0.222,0c0.178,0.06,0.355,0.104,0.534,0.133
		c0.178,0.031,0.385,0.075,0.622,0.134c0.296,0.119,0.607,0.267,0.934,0.444c0.325,0.178,0.637,0.356,0.934,0.534
		c0.178,0.06,0.34,0.148,0.489,0.267c0.147,0.12,0.281,0.208,0.4,0.267c0.118,0.119,0.236,0.222,0.355,0.311
		c0.118,0.089,0.236,0.193,0.356,0.311c0.118,0.12,0.222,0.238,0.311,0.356c0.089,0.12,0.163,0.237,0.222,0.355l0.178,0.623
		l-2.134,24.454c0.534,0.06,1.125,0.104,1.778,0.133c0.652,0.031,1.334,0.044,2.045,0.044s1.452,0,2.223,0c0.77,0,1.57,0,2.401,0
		c0.296,0,0.592,0,0.889,0c0.296,0,0.592,0,0.889,0c0.355,0.06,0.681,0.089,0.978,0.089c0.296,0,0.623,0,0.978,0
		c0.059,0,0.103,0,0.134,0c0.029,0,0.073,0,0.133,0c0.058,0,0.118,0,0.178,0c1.896,0,3.764,0,5.602,0
		c1.837,0,3.615-0.029,5.335-0.089c1.719-0.058,3.246-0.147,4.58-0.267c1.333-0.118,2.445-0.296,3.334-0.534h3.557h0.089
		c0.118,0,0.251,0.044,0.4,0.134c0.147,0.089,0.281,0.193,0.4,0.311c0.118,0.178,0.207,0.342,0.267,0.489
		c0.058,0.148,0.089,0.282,0.089,0.4c0,0.178-0.06,0.356-0.178,0.534c-0.12,0.178-0.327,0.326-0.623,0.444
		c-0.238,0.178-0.564,0.297-0.978,0.356c-0.416,0.06-0.949,0.089-1.601,0.089c-2.787,0.355-5.544,0.682-8.27,0.978
		c-2.728,0.297-5.424,0.534-8.092,0.711c-2.667,0.238-5.321,0.445-7.958,0.623c-2.639,0.178-5.262,0.355-7.87,0.534
		c-0.06,0.711-0.133,1.527-0.222,2.445c-0.089,0.919-0.164,1.971-0.223,3.157c-0.06,1.187-0.104,2.401-0.133,3.646
		c-0.031,1.245-0.044,2.521-0.044,3.824c-0.06,1.364-0.089,2.698-0.089,4.001c0,1.305,0,2.579,0,3.824c0,1.185,0,2.252,0,3.201
		c0,0.948,0,1.719,0,2.312c-0.06,0-0.149,0.029-0.267,0.089c-0.06,0.059-0.12,0.089-0.178,0.089c-0.06,0-0.119,0-0.178,0
		c-0.06,0-0.12,0-0.178,0c-0.06,0-0.089,0.029-0.089,0.089c-0.06,0-0.12,0-0.178,0c-0.06,0-0.12,0-0.178,0l-3.557,0.089
		c-0.06-0.06-0.149-0.089-0.267-0.089c-0.06-0.06-0.119-0.089-0.178-0.089c-0.06,0-0.119,0-0.178,0l-0.534,0.089
		c-0.355-0.119-0.697-0.267-1.022-0.444c-0.327-0.178-0.638-0.386-0.934-0.623c-0.297-0.237-0.549-0.52-0.756-0.845
		c-0.208-0.327-0.371-0.697-0.489-1.111c0.059-0.297,0.103-0.609,0.133-0.934c0.029-0.326,0.074-0.697,0.134-1.111
		c0-0.296,0.014-0.667,0.044-1.111c0.029-0.445,0.073-0.934,0.133-1.467c0.058-0.474,0.103-0.963,0.133-1.467
		c0.029-0.503,0.074-1.022,0.133-1.556c0-0.534,0.014-1.081,0.044-1.645c0.029-0.563,0.074-1.112,0.133-1.645
		c0.118-1.245,0.192-2.475,0.223-3.69c0.029-1.214,0.073-2.386,0.133-3.512c0.058-1.125,0.103-2.09,0.133-2.89
		c0.029-0.8,0.044-1.437,0.044-1.912c-0.06,0-0.12,0-0.178,0c-0.06,0-0.12-0.029-0.178-0.089c-0.06,0-0.12,0-0.178,0
		c-0.06,0-0.119,0-0.178,0c-0.06,0-0.133,0-0.222,0s-0.164,0-0.222,0c-0.12,0-0.208,0-0.267,0c-0.06,0-0.148,0-0.267,0h-0.534H9.959
		c-0.12,0-0.253,0-0.4,0c-0.148,0-0.282,0-0.4,0c-0.178,0-0.342,0-0.489,0c-0.149,0-0.282,0-0.4,0c-0.297,0-0.593-0.014-0.889-0.044
		c-0.297-0.029-0.593-0.074-0.889-0.133c-0.831-0.058-1.631-0.192-2.401-0.4c-0.771-0.207-1.482-0.489-2.134-0.845
		c-0.711-0.355-1.215-0.889-1.512-1.601C0.147,33.791,0,32.932,0,31.923c0-0.058,0-0.118,0-0.178c0-0.059,0-0.147,0-0.267
		c0.06-0.059,0.089-0.134,0.089-0.223s0-0.163,0-0.222c0-0.118,0-0.222,0-0.311s0-0.163,0-0.223c0-0.118,0-0.222,0-0.311
		s0-0.192,0-0.311h3.557c0.118,0.06,0.222,0.104,0.311,0.133c0.089,0.03,0.192,0.044,0.311,0.044
		c0.118,0.06,0.236,0.104,0.356,0.133c0.118,0.031,0.236,0.075,0.355,0.133c0.118,0.06,0.251,0.12,0.4,0.178
		c0.147,0.06,0.281,0.089,0.4,0.089c0.178,0.06,0.34,0.12,0.489,0.178c0.147,0.06,0.311,0.119,0.489,0.178
		c0.356,0.12,0.726,0.238,1.112,0.355c0.385,0.12,0.785,0.238,1.2,0.356c0.414,0.06,0.845,0.133,1.29,0.222
		c0.445,0.089,0.874,0.133,1.29,0.133h0.089h0.089c0.058,0,0.118,0,0.178,0v-0.089C12.063,31.687,12.107,31.389,12.138,31.034z
		 M55.754,53.753c0.118-1.689,0.207-3.513,0.267-5.469c0.059-1.956,0.103-3.942,0.133-5.958c0.029-2.015,0.044-4.03,0.044-6.046
		c0-0.296,0-0.578,0-0.845c0-0.267,0-0.519,0-0.756c0-0.296,0-0.578,0-0.845c0-0.267,0-0.519,0-0.756
		c0-3.319-0.015-6.505-0.044-9.56c-0.03-3.052-0.104-5.942-0.222-8.67c-0.06-2.786-0.133-5.024-0.222-6.713s-0.193-2.83-0.312-3.423
		l0.356-0.356c0.118-0.058,0.251-0.103,0.4-0.133c0.147-0.029,0.312-0.044,0.489-0.044H60.2c0.059,0,0.134,0,0.223,0
		s0.163,0,0.222,0c0.118,0.06,0.222,0.089,0.311,0.089c0.089,0,0.163,0,0.223,0c0.178,0,0.37,0.015,0.578,0.044
		c0.207,0.031,0.43,0.075,0.667,0.133c0.474,0.06,0.903,0.178,1.29,0.356c0.385,0.178,0.756,0.355,1.111,0.533
		c0.356,0.238,0.637,0.46,0.845,0.667c0.207,0.208,0.312,0.46,0.312,0.756c0,1.187,0,2.668,0,4.446s0,3.854,0,6.225
		c0,1.187,0,2.387,0,3.601c0,1.216,0,2.445,0,3.69c-0.06,1.245-0.089,2.49-0.089,3.735c0,1.245,0,2.521,0,3.824
		c-0.06,1.601-0.104,3.157-0.133,4.668c-0.031,1.511-0.045,3.009-0.045,4.49c-0.06,1.423-0.104,2.846-0.133,4.269
		c-0.03,1.423-0.075,2.816-0.133,4.179c-0.06,2.728-0.178,4.906-0.355,6.536c-0.178,1.631-0.356,2.771-0.534,3.424l-0.178,0.622
		l-0.534,0.178H60.29c-0.178-0.06-0.356-0.104-0.534-0.133c-0.178-0.031-0.356-0.104-0.534-0.223
		c-0.119-0.06-0.237-0.104-0.355-0.133c-0.12-0.031-0.208-0.044-0.267-0.044c-0.119-0.06-0.222-0.104-0.311-0.133
		c-0.089-0.031-0.193-0.075-0.311-0.133l-0.445-0.178l-0.355-0.178c-0.178-0.119-0.356-0.222-0.534-0.311s-0.327-0.193-0.445-0.312
		c-0.178-0.06-0.326-0.133-0.444-0.222c-0.12-0.089-0.238-0.133-0.356-0.133C55.517,57.03,55.635,55.443,55.754,53.753z"/>
	<path fill="#0F8DBB" d="M78.562,42.505c0.029-0.236,0.074-0.474,0.133-0.711c0-0.236,0.014-0.458,0.044-0.667
		c0.029-0.207,0.074-0.429,0.134-0.667c0-0.118,0-0.222,0-0.311s0.029-0.192,0.089-0.312c0-0.058,0-0.147,0-0.267
		c0-0.118,0-0.207,0-0.267c0-0.118,0-0.223,0-0.312s0.029-0.192,0.089-0.311c0-0.059,0.014-0.147,0.044-0.267
		c0.029-0.118,0.044-0.207,0.044-0.267c0.058-0.474,0.103-0.934,0.133-1.378c0.029-0.444,0.074-0.903,0.133-1.378
		c0.059-0.474,0.133-1.007,0.223-1.601c0.089-0.592,0.162-1.186,0.222-1.779l0.444-0.267l0.534-0.089h3.557c0.058,0,0.118,0,0.178,0
		c0.058,0,0.147,0,0.267,0c0.059,0.06,0.133,0.089,0.222,0.089c0.089,0,0.163,0,0.223,0c0.118,0.06,0.267,0.104,0.444,0.133
		c0.178,0.031,0.356,0.104,0.534,0.222c0.118,0.06,0.222,0.12,0.311,0.178c0.089,0.06,0.192,0.089,0.312,0.089
		c0.058,0.06,0.147,0.119,0.267,0.178c0.118,0.06,0.207,0.12,0.267,0.178c0.178,0.12,0.356,0.253,0.534,0.4
		c0.178,0.148,0.356,0.282,0.534,0.4c0.118,0.12,0.251,0.238,0.4,0.356c0.147,0.119,0.251,0.237,0.312,0.355l0.444,0.534
		c-0.06,0.12-0.119,0.237-0.178,0.355c-0.06,0.12-0.089,0.238-0.089,0.356c-0.06,0.178-0.12,0.342-0.178,0.489
		c-0.06,0.149-0.12,0.312-0.178,0.489c-0.06,0.178-0.119,0.355-0.178,0.534c-0.06,0.178-0.089,0.355-0.089,0.533
		c-0.06,0.178-0.12,0.371-0.178,0.578c-0.06,0.208-0.12,0.431-0.178,0.667c-0.12,0.416-0.238,0.86-0.356,1.334
		c-0.119,0.475-0.237,0.949-0.355,1.422c-0.06,0.476-0.133,0.949-0.222,1.423c-0.089,0.475-0.193,0.949-0.312,1.423
		c-0.06,0.416-0.12,0.831-0.178,1.245c-0.06,0.415-0.12,0.831-0.178,1.245c-0.06,0.416-0.089,0.8-0.089,1.156
		c0,0.355,0,0.711,0,1.067c-0.06,0.653-0.045,1.275,0.044,1.867c0.089,0.593,0.222,1.127,0.4,1.601
		c0.178,0.416,0.4,0.787,0.667,1.112c0.267,0.327,0.578,0.549,0.934,0.667h0.089c0.296-0.118,0.607-0.236,0.934-0.356
		c0.325-0.118,0.667-0.267,1.023-0.444c0.947-0.474,1.881-1.081,2.801-1.823c0.918-0.74,1.823-1.645,2.712-2.712
		c0.889-1.007,1.734-2.059,2.534-3.157c0.8-1.096,1.497-2.208,2.09-3.334c0.178-0.296,0.34-0.578,0.489-0.845
		c0.147-0.267,0.281-0.548,0.4-0.845c0.118-0.236,0.236-0.503,0.355-0.8c0.118-0.296,0.236-0.563,0.356-0.8
		c0.236-0.533,0.444-1.052,0.622-1.556c0.178-0.503,0.325-0.992,0.445-1.467c0.118-0.296,0.251-0.534,0.4-0.711
		c0.147-0.178,0.34-0.356,0.578-0.534c0.236-0.118,0.474-0.236,0.711-0.355c0.236-0.118,0.474-0.207,0.711-0.267
		c0.118,0,0.236-0.014,0.356-0.044c0.118-0.029,0.267-0.044,0.444-0.044c0.118-0.058,0.236-0.089,0.356-0.089
		c0.118,0,0.236,0,0.355,0c0.118,0,0.222,0,0.311,0c0.089,0,0.192-0.029,0.312-0.089c0.058,0,0.118,0,0.178,0
		c0.059,0,0.118,0,0.178,0h3.557c0,0.06,0,0.148,0,0.267c-0.06,0.06-0.089,0.12-0.089,0.178c0,0.06,0,0.12,0,0.178
		c0,0.06,0,0.148,0,0.267c0,0.06,0,0.12,0,0.178c0,0.06,0,0.12,0,0.178c0,0.12,0,0.238,0,0.356c0,0.12,0,0.238,0,0.355v0.534v0.267
		v0.267c0,1.542,0.073,3.068,0.222,4.58c0.147,1.511,0.34,2.979,0.578,4.401c0.296,1.423,0.578,2.728,0.845,3.913
		c0.267,1.187,0.547,2.223,0.845,3.112c0.118,0.238,0.207,0.489,0.267,0.756c0.059,0.267,0.147,0.489,0.267,0.667
		c0.058,0.237,0.133,0.444,0.222,0.623c0.089,0.178,0.163,0.326,0.222,0.444c0.178,0.297,0.34,0.52,0.489,0.667
		c0.147,0.149,0.281,0.222,0.4,0.222c1.007,0.178,1.645,0.416,1.912,0.711c0.267,0.297,0.163,0.653-0.312,1.067
		c-0.416,0.355-1.082,0.756-2,1.2c-0.92,0.445-2.061,0.903-3.424,1.378l-0.533,0.267l-0.534,0.178h-3.557
		c-0.237-0.356-0.475-0.816-0.711-1.378c-0.238-0.564-0.445-1.231-0.623-2.001c-0.238-0.83-0.445-1.703-0.623-2.623
		c-0.178-0.918-0.355-1.852-0.534-2.801c-0.237-1.067-0.46-2.074-0.667-3.023c-0.208-0.947-0.4-1.867-0.578-2.756
		c-0.12,0.178-0.253,0.355-0.4,0.534c-0.148,0.178-0.282,0.355-0.4,0.533c-0.12,0.238-0.253,0.445-0.4,0.623
		c-0.148,0.178-0.311,0.356-0.489,0.534c-0.593,0.771-1.245,1.542-1.957,2.312c-0.711,0.771-1.453,1.512-2.223,2.223
		c-0.771,0.711-1.542,1.364-2.312,1.956c-0.771,0.593-1.542,1.127-2.312,1.601c-0.533,0.356-1.067,0.653-1.601,0.889
		c-0.533,0.238-1.038,0.445-1.512,0.623c-0.475,0.059-0.949,0.133-1.422,0.222c-0.476,0.089-0.949,0.133-1.423,0.133l-3.557,0.089
		c-0.475-0.06-0.934-0.134-1.378-0.223c-0.445-0.089-0.875-0.193-1.29-0.311c-0.416-0.178-0.815-0.429-1.201-0.756
		c-0.386-0.325-0.756-0.725-1.111-1.201c-0.238-0.355-0.416-0.756-0.534-1.2c-0.119-0.445-0.237-0.903-0.355-1.378
		c-0.06-0.474-0.12-0.978-0.178-1.512c-0.06-0.533-0.089-1.096-0.089-1.689c0-0.355,0-0.711,0-1.067
		c0-0.356,0.029-0.711,0.089-1.067c0-0.355,0.014-0.711,0.044-1.067c0.029-0.355,0.073-0.711,0.133-1.067c0-0.296,0-0.607,0-0.934
		c0-0.325,0.029-0.607,0.089-0.845c0-0.118,0-0.236,0-0.355c0-0.118,0.029-0.236,0.089-0.356c0-0.118,0-0.236,0-0.355
		c0-0.118,0-0.236,0-0.355v-0.089C78.487,42.949,78.532,42.742,78.562,42.505z"/>
	<path fill="#0F8DBB" d="M129.514,49.263c-1.454-3.201-2.505-5.602-3.157-7.203c-0.711-1.601-1.334-2.935-1.868-4.001
		c-0.533-1.067-1.009-1.867-1.423-2.401l-0.267-0.356l-0.355-0.444c-0.06-0.059-0.12-0.118-0.178-0.178
		c-0.06-0.059-0.119-0.118-0.178-0.178c-0.06,0-0.12-0.029-0.178-0.089c-0.06-0.058-0.12-0.118-0.178-0.178
		c-0.06-0.118-0.164-0.236-0.312-0.355c-0.148-0.118-0.282-0.267-0.4-0.445c-0.297-0.296-0.445-0.547-0.445-0.756
		c0-0.207,0.147-0.37,0.445-0.489c0.296-0.118,0.651-0.223,1.067-0.312c0.414-0.089,0.889-0.133,1.423-0.133h3.557
		c0.118,0,0.236,0,0.355,0c0.118,0,0.236,0,0.355,0c0.059,0,0.118,0,0.178,0c0.058,0,0.147,0,0.267,0
		c0.058,0.06,0.133,0.089,0.222,0.089s0.163,0,0.223,0c0.296,0.06,0.607,0.104,0.934,0.133c0.325,0.031,0.667,0.104,1.022,0.223
		c0.296,0.06,0.578,0.133,0.845,0.222s0.518,0.193,0.756,0.311c0.296,0.06,0.623,0.4,0.978,1.022
		c0.356,0.623,0.77,1.498,1.245,2.624c0.474,1.127,0.963,2.327,1.467,3.601c0.503,1.276,1.022,2.594,1.556,3.957l0.089,0.356
		l0.178,0.355c0.474,1.365,0.963,2.683,1.467,3.957c0.503,1.276,0.963,2.505,1.378,3.69c0.178,0.416,0.34,0.8,0.489,1.156
		c0.147,0.355,0.281,0.682,0.4,0.978c0.178-0.178,0.34-0.34,0.489-0.489c0.147-0.147,0.281-0.311,0.4-0.489
		c0.118-0.178,0.251-0.37,0.4-0.578c0.147-0.207,0.312-0.4,0.489-0.578c0.474-0.651,0.948-1.348,1.423-2.09
		c0.474-0.74,0.948-1.525,1.423-2.356c0.474-0.829,0.934-1.689,1.378-2.579c0.445-0.889,0.874-1.778,1.29-2.667
		c0.474-1.067,0.903-2.119,1.29-3.157c0.385-1.037,0.725-2.03,1.022-2.979c0.296-1.007,0.518-1.926,0.667-2.757
		c0.147-0.829,0.222-1.601,0.222-2.312c0-0.058,0-0.118,0-0.178c0-0.058,0-0.147,0-0.267c-0.06-0.059-0.089-0.118-0.089-0.178
		c0-0.059,0-0.118,0-0.178c0-0.058,0-0.118,0-0.178c0-0.058,0-0.118,0-0.178c-0.06-0.058-0.089-0.118-0.089-0.178
		c0-0.059,0-0.118,0-0.178c0.118-0.296,0.251-0.503,0.4-0.623c0.147-0.118,0.341-0.147,0.578-0.089h3.557
		c0.236,0.06,0.474,0.148,0.711,0.267c0.236,0.12,0.474,0.327,0.711,0.623c0.118,0.12,0.222,0.253,0.311,0.4
		c0.089,0.149,0.192,0.312,0.311,0.489c0.059,0.12,0.147,0.267,0.267,0.444c0.118,0.178,0.207,0.356,0.267,0.534
		c0.178,0.356,0.355,0.711,0.534,1.067c0.178,0.355,0.325,0.711,0.444,1.067c0.059,0.12,0.103,0.253,0.133,0.4
		c0.029,0.149,0.074,0.282,0.134,0.4c0,0.12,0.014,0.253,0.044,0.4c0.029,0.149,0.073,0.282,0.133,0.4
		c0.058,0.238,0.103,0.475,0.133,0.711c0.029,0.237,0.044,0.444,0.044,0.623c0,0.06,0,0.119,0,0.178c0,0.06,0,0.12,0,0.178
		c-0.06,0.06-0.089,0.12-0.089,0.178c0,0.06,0,0.12,0,0.178l-0.178,0.622c-0.297,0.653-0.667,1.365-1.112,2.134
		c-0.444,0.771-0.964,1.571-1.556,2.401c-0.593,0.889-1.231,1.778-1.912,2.667c-0.682,0.89-1.409,1.779-2.179,2.668
		c-0.297,0.416-0.608,0.815-0.934,1.2c-0.327,0.386-0.638,0.756-0.934,1.112c-0.178,0.178-0.356,0.371-0.534,0.578
		c-0.178,0.208-0.327,0.4-0.445,0.578c-0.178,0.178-0.355,0.356-0.533,0.534s-0.356,0.355-0.534,0.534
		c-1.245,1.364-2.46,2.609-3.646,3.734c-1.187,1.127-2.312,2.075-3.379,2.846c-1.067,0.889-1.927,1.497-2.579,1.823
		c-0.653,0.325-1.127,0.34-1.423,0.044l-3.557,0.089C132.789,56.465,130.966,52.464,129.514,49.263z"/>
	<path fill="#0F8DBB" d="M167.794,30.322l-0.089-0.089v-0.178l0.267-0.711c0.118-0.118,0.223-0.192,0.312-0.222
		c0.089-0.029,0.222-0.044,0.4-0.044h3.557c0.178,0,0.385,0.015,0.622,0.044c0.236,0.03,0.474,0.104,0.711,0.222
		c0.296,0.06,0.578,0.164,0.845,0.311c0.267,0.149,0.519,0.282,0.756,0.4c0.059,0.06,0.118,0.104,0.178,0.133
		c0.058,0.031,0.118,0.044,0.178,0.044c0,0.06,0.029,0.104,0.089,0.133c0.059,0.031,0.118,0.044,0.178,0.044
		c0.059,0.06,0.118,0.104,0.178,0.133c0.059,0.031,0.118,0.044,0.178,0.044c0.058,0.06,0.118,0.104,0.178,0.134
		c0.058,0.03,0.118,0.075,0.178,0.133c0.118,0.06,0.207,0.12,0.267,0.178c0.059,0.06,0.147,0.089,0.267,0.089
		c0.058,0.06,0.133,0.12,0.222,0.178c0.089,0.06,0.163,0.12,0.222,0.178c0.178,0.06,0.341,0.133,0.489,0.222
		c0.147,0.089,0.281,0.193,0.4,0.311c0.118,0.06,0.192,0.208,0.223,0.445c0.029,0.237,0.074,0.534,0.133,0.889
		c0,0.178,0,0.355,0,0.534c0,0.178,0.029,0.386,0.089,0.622c0,0.178,0,0.387,0,0.623c0,0.238,0,0.475,0,0.711
		c0,0.297,0,0.608,0,0.934c0,0.327,0,0.667,0,1.023c-0.06,0.355-0.089,0.711-0.089,1.067s0,0.711,0,1.067
		c-0.06,0.771-0.104,1.527-0.133,2.268c-0.031,0.742-0.044,1.527-0.044,2.356l-0.089,0.445v0.444
		c-0.06,0.711-0.104,1.423-0.134,2.134c-0.03,0.711-0.044,1.423-0.044,2.134c-0.06,0.711-0.089,1.394-0.089,2.045
		c0,0.653,0,1.276,0,1.868c0,0.355,0,0.697,0,1.022c0,0.327,0,0.638,0,0.934c0,0.297,0.014,0.578,0.044,0.845
		c0.029,0.267,0.074,0.52,0.133,0.756v0.267l0.089,0.355v0.356l0.089,0.355V58.6v0.267l-0.267,0.534
		c-0.06,0.059-0.148,0.133-0.267,0.222c-0.12,0.089-0.238,0.163-0.355,0.223l-0.267,0.178l-0.178,0.089h-3.557h-0.267h-0.178h-0.356
		l-0.355-0.089c-0.238-0.12-0.475-0.193-0.711-0.222c-0.237-0.031-0.444-0.104-0.623-0.223c-0.119-0.06-0.222-0.119-0.311-0.178
		c-0.089-0.06-0.193-0.089-0.311-0.089c-0.06-0.06-0.12-0.12-0.178-0.178c-0.06-0.06-0.119-0.12-0.178-0.178l-0.267-0.178
		l-0.089-0.267c-0.06-0.178-0.104-0.445-0.134-0.8c-0.03-0.355-0.044-0.8-0.044-1.334c0-0.474,0-1.007,0-1.601
		c0-0.592,0-1.245,0-1.956c0-0.118,0-0.251,0-0.4c0-0.147,0-0.311,0-0.489c0-0.118,0-0.267,0-0.445s0-0.355,0-0.534
		c0-0.474,0-0.963,0-1.467c0-0.503,0-1.023,0-1.556c0-0.534,0-1.067,0-1.601c0-0.534,0-1.067,0-1.601
		c-0.06-1.718-0.119-3.348-0.178-4.891c-0.06-1.541-0.148-3.023-0.267-4.446c-0.12-1.423-0.297-2.535-0.534-3.335
		c-0.237-0.8-0.534-1.289-0.889-1.467V30.5V30.322z M172.952,11.026h-3.557l0.267-0.089h3.557h0.178h0.267h0.089h0.089
		c0.296,0,0.607,0.031,0.934,0.089c0.325,0.06,0.636,0.148,0.934,0.267c0.296,0.12,0.563,0.238,0.8,0.355
		c0.236,0.12,0.474,0.238,0.711,0.356c0.236,0.12,0.445,0.237,0.623,0.355c0.178,0.12,0.296,0.238,0.355,0.356l0.178,0.355v8.359
		l-0.355,0.267c-0.06,0.06-0.164,0.089-0.311,0.089c-0.149,0-0.282,0-0.4,0h-3.557c-0.12,0-0.238,0-0.356,0c-0.12,0-0.237,0-0.355,0
		c-0.12,0-0.253-0.014-0.4-0.044c-0.148-0.029-0.282-0.074-0.4-0.133c-0.297-0.118-0.578-0.236-0.845-0.355
		c-0.267-0.118-0.549-0.267-0.845-0.445c-0.238-0.178-0.416-0.4-0.534-0.667c-0.12-0.267-0.178-0.518-0.178-0.756l-0.623-8.448
		h3.557L172.952,11.026z"/>
	<path fill="#0F8DBB" d="M191.447,22.142c0-1.896-0.015-3.631-0.044-5.202c-0.031-1.57-0.075-2.948-0.133-4.135
		c-0.06-1.185-0.12-2.252-0.178-3.201c-0.06-0.948-0.119-1.778-0.178-2.49c-0.06-0.711-0.133-1.319-0.222-1.823
		c-0.089-0.503-0.164-0.934-0.222-1.289c-0.06-0.296-0.104-0.578-0.134-0.845c-0.03-0.267-0.044-0.519-0.044-0.756
		c-0.06-0.118-0.089-0.251-0.089-0.4c0-0.147,0.029-0.311,0.089-0.489c0.059-0.118,0.134-0.267,0.223-0.444s0.163-0.385,0.222-0.623
		c0.058-0.058,0.133-0.103,0.222-0.133c0.089-0.029,0.192-0.074,0.312-0.133c0.118-0.059,0.251-0.103,0.4-0.133
		C191.816,0.015,191.95,0,192.069,0h3.557c0.059,0,0.133,0,0.222,0c0.089,0,0.163,0,0.223,0c0.118,0.06,0.222,0.089,0.311,0.089
		s0.163,0,0.222,0c0.178,0.06,0.356,0.104,0.534,0.133c0.178,0.03,0.356,0.104,0.534,0.222c0.414,0.178,0.8,0.356,1.156,0.534
		c0.356,0.178,0.711,0.416,1.067,0.711c0.355,0.237,0.651,0.489,0.889,0.756c0.236,0.267,0.385,0.549,0.444,0.845
		c0,0.06,0,0.104,0,0.133c0,0.031,0.029,0.075,0.089,0.133c0,0.06,0,0.12,0,0.178c0,0.06,0,0.149,0,0.267c0,0.178,0,0.355,0,0.533
		c0,0.178,0,0.386,0,0.623c0,0.831-0.015,1.867-0.044,3.112c-0.03,1.245-0.104,2.698-0.222,4.357
		c-0.06,0.831-0.104,1.689-0.133,2.579c-0.031,0.889-0.044,1.778-0.044,2.667c-0.06,0.949-0.104,1.898-0.133,2.846
		c-0.031,0.949-0.075,1.927-0.134,2.935c-0.06,0.653-0.104,1.32-0.133,2c-0.03,0.682-0.044,1.349-0.044,2.001
		c-0.06,0.711-0.104,1.409-0.133,2.089c-0.031,0.683-0.044,1.349-0.044,2.001c-0.06,1.423-0.12,2.846-0.178,4.268
		c-0.06,1.423-0.089,2.816-0.089,4.18c-0.06,1.364-0.089,2.683-0.089,3.957c0,1.275,0,2.505,0,3.69c0,1.305,0.014,2.55,0.044,3.735
		c0.029,1.187,0.073,2.283,0.133,3.29c0.058,1.009,0.133,1.868,0.222,2.579s0.192,1.274,0.311,1.689
		c0,0.118-0.044,0.236-0.133,0.355c-0.089,0.118-0.193,0.207-0.311,0.267c-0.12,0.118-0.267,0.191-0.445,0.222
		c-0.178,0.029-0.355,0.044-0.533,0.044l-3.557,0.089c-0.06-0.06-0.148-0.089-0.267-0.089c-0.06-0.06-0.12-0.089-0.178-0.089
		c-0.06,0-0.12,0-0.178,0c-0.06,0-0.119,0-0.178,0c-0.06,0-0.12,0-0.178,0c-0.06-0.06-0.12-0.089-0.178-0.089
		c-0.06,0-0.12,0-0.178,0c-0.237-0.06-0.459-0.104-0.667-0.133c-0.208-0.031-0.431-0.104-0.667-0.223
		c-0.12-0.06-0.223-0.104-0.312-0.133c-0.089-0.031-0.193-0.044-0.311-0.044c-0.06-0.06-0.133-0.104-0.222-0.133
		c-0.089-0.031-0.164-0.075-0.223-0.133l-0.444-0.267v-0.267c-0.06-0.355-0.12-0.741-0.178-1.156
		c-0.06-0.414-0.089-0.83-0.089-1.245c-0.06-0.474-0.089-0.934-0.089-1.378c0-0.444,0-0.874,0-1.289c0-0.414,0-0.83,0-1.245
		c0-0.414,0-0.83,0-1.245c0-0.414,0.014-0.829,0.044-1.245c0.029-0.414,0.074-0.83,0.134-1.245v-0.444v-0.445
		c0-0.236,0-0.474,0-0.711c0-0.236,0.029-0.474,0.089-0.711c0-0.236,0-0.474,0-0.711c0-0.236,0-0.474,0-0.711
		c0-0.236,0-0.474,0-0.711c0-0.236,0.029-0.503,0.089-0.8c0-0.236,0-0.474,0-0.711c0-0.236,0-0.474,0-0.711v-0.089V22.142z"/>
	<path fill="#0F8DBB" d="M245.823,34.591c0.029,0,0.073-0.029,0.133-0.089c0.059,0,0.118,0,0.179,0c0.117,0,0.222-0.014,0.311-0.044
		c0.089-0.029,0.192-0.073,0.312-0.133c0.059-0.058,0.147-0.103,0.267-0.133c0.118-0.029,0.207-0.074,0.267-0.133h3.558l0.089,0.534
		c0,0.06,0,0.119,0,0.178c0,0.06,0.028,0.148,0.089,0.267c0,0.06,0,0.12,0,0.178c0,0.06,0,0.149,0,0.267
		c0.058,0.533,0.118,1.171,0.178,1.912c0.059,0.742,0.118,1.556,0.178,2.445c0.059,0.949,0.133,1.883,0.223,2.801
		c0.089,0.92,0.191,1.882,0.311,2.89c0.118,1.483,0.296,2.89,0.534,4.224c0.235,1.334,0.533,2.594,0.889,3.779
		c0.296,1.245,0.696,2.165,1.2,2.756c0.503,0.593,1.052,0.889,1.646,0.889h0.089h0.178c0.178,0.12,0.312,0.253,0.4,0.4
		c0.089,0.148,0.103,0.282,0.044,0.4c-0.06,0.12-0.163,0.238-0.311,0.356c-0.149,0.119-0.312,0.236-0.489,0.355
		c-0.178,0.118-0.371,0.236-0.578,0.356c-0.208,0.118-0.46,0.236-0.756,0.355c-0.119,0.059-0.237,0.118-0.355,0.178
		c-0.12,0.059-0.237,0.118-0.355,0.178c-0.179,0.058-0.327,0.118-0.445,0.178c-0.119,0.058-0.237,0.118-0.355,0.178
		c-0.178,0.059-0.342,0.103-0.489,0.133c-0.148,0.029-0.282,0.074-0.399,0.133c-0.179,0-0.342,0.014-0.489,0.044
		c-0.149,0.029-0.282,0.074-0.4,0.134c-0.237,0.118-0.476,0.191-0.711,0.222c-0.238,0.029-0.445,0.044-0.623,0.044l-3.557,0.089
		l-0.533-0.089l-0.179-0.178c-0.178-0.297-0.326-0.623-0.444-0.979c-0.119-0.355-0.237-0.742-0.355-1.156
		c-0.06-0.414-0.134-0.859-0.223-1.334c-0.089-0.474-0.193-0.978-0.311-1.512l-0.09-0.178v-0.267
		c-0.06-0.356-0.119-0.696-0.178-1.022c-0.06-0.325-0.148-0.637-0.267-0.934c-0.475,0.416-1.009,0.816-1.601,1.201
		c-0.594,0.386-1.245,0.756-1.956,1.111c-1.482,0.711-2.994,1.305-4.536,1.779c-1.542,0.475-3.112,0.86-4.713,1.156
		c-0.653,0.059-1.305,0.133-1.956,0.222c-0.653,0.089-1.305,0.163-1.957,0.223c-0.593,0.058-1.2,0.103-1.823,0.133
		c-0.623,0.029-1.231,0.044-1.823,0.044l-3.557,0.089c-0.593-0.06-1.156-0.104-1.689-0.133c-0.534-0.031-1.038-0.075-1.512-0.133
		c-0.475-0.06-0.934-0.134-1.378-0.223c-0.444-0.089-0.845-0.164-1.2-0.222c-0.889-0.296-1.645-0.667-2.268-1.111
		c-0.623-0.445-1.112-0.963-1.467-1.556c-0.416-0.534-0.711-1.112-0.889-1.734c-0.178-0.622-0.267-1.289-0.267-2
		c0-0.534,0.044-1.067,0.134-1.601c0.089-0.534,0.222-1.096,0.4-1.689c0.178-0.534,0.385-1.096,0.623-1.689
		c0.236-0.592,0.534-1.186,0.889-1.779c0.83-1.363,1.837-2.712,3.023-4.046c1.185-1.334,2.519-2.652,4.001-3.957
		c1.541-1.245,3.082-2.341,4.624-3.29c1.541-0.948,3.142-1.719,4.802-2.312c0.474-0.178,0.963-0.34,1.467-0.489
		c0.503-0.147,0.992-0.251,1.467-0.311c0.474-0.118,0.963-0.192,1.467-0.222c0.503-0.029,0.992-0.044,1.467-0.044h3.558
		c0.829,0,1.63,0.089,2.4,0.267c0.77,0.178,1.512,0.416,2.224,0.711c0.651,0.297,1.303,0.697,1.956,1.2
		c0.651,0.504,1.245,1.083,1.778,1.734C245.748,34.591,245.792,34.591,245.823,34.591z M242.443,47.618
		c0.029-0.147,0.045-0.34,0.045-0.578c0-0.118,0-0.222,0-0.311s0.029-0.192,0.09-0.311c0-0.059,0-0.147,0-0.267
		c0-0.118,0-0.236,0-0.355c0-0.356-0.016-0.741-0.045-1.156c-0.031-0.414-0.075-0.829-0.134-1.245
		c-0.06-0.414-0.104-0.83-0.134-1.245c-0.03-0.414-0.074-0.83-0.133-1.245c-0.06-0.236-0.104-0.458-0.134-0.667
		c-0.03-0.207-0.075-0.43-0.133-0.667c-0.061-0.178-0.104-0.37-0.134-0.578c-0.03-0.207-0.045-0.429-0.045-0.667
		c-0.593-0.829-1.215-1.556-1.867-2.178c-0.652-0.623-1.364-1.112-2.134-1.467c-0.533-0.236-1.067-0.445-1.601-0.623
		c-0.533-0.178-1.038-0.296-1.512-0.356c-0.711,0.06-1.394,0.193-2.045,0.4c-0.653,0.208-1.305,0.431-1.957,0.667
		c-0.949,0.416-1.793,0.831-2.534,1.245c-0.742,0.416-1.438,0.86-2.09,1.334l-0.533,0.534l-0.534,0.444
		c-0.593,0.593-1.142,1.245-1.645,1.957c-0.504,0.711-0.964,1.482-1.378,2.312c-0.416,0.831-0.742,1.675-0.978,2.534
		c-0.238,0.86-0.416,1.705-0.534,2.534c-0.06,0.12-0.089,0.238-0.089,0.356c0,0.119,0,0.237,0,0.355c0,0.06,0,0.149,0,0.267
		c0,0.06,0,0.12,0,0.178c0,0.06,0,0.119,0,0.178c0,0.297,0,0.578,0,0.845s0.029,0.549,0.089,0.845
		c0.059,0.238,0.118,0.489,0.178,0.756c0.058,0.267,0.118,0.549,0.178,0.845c0.296,0.711,0.681,1.334,1.156,1.867
		c0.474,0.534,1.096,0.979,1.868,1.334c0.533,0.238,1.096,0.431,1.689,0.578c0.592,0.148,1.185,0.253,1.778,0.311
		c0.118,0,0.207,0,0.267,0c0.059,0,0.147,0,0.267,0c0.058,0,0.133-0.014,0.222-0.044c0.089-0.029,0.163-0.044,0.222-0.044
		c0.474-0.118,0.979-0.236,1.512-0.355c0.534-0.118,1.067-0.267,1.601-0.445c1.007-0.296,2.03-0.696,3.068-1.2
		c1.037-0.503,2.03-1.052,2.979-1.645c1.007-0.652,1.911-1.348,2.712-2.09c0.8-0.741,1.556-1.556,2.268-2.445v-0.089
		C242.369,47.9,242.414,47.767,242.443,47.618z"/>
	<path fill="#0F8DBB" d="M266.186,54.02c0.028-0.74,0.073-1.496,0.133-2.268c0-0.355,0-0.725,0-1.111
		c0-0.385,0.029-0.756,0.089-1.111c0-0.356,0-0.711,0-1.067c0-0.355,0-0.711,0-1.067c0-0.296,0-0.607,0-0.934
		c0-0.325,0-0.637,0-0.934c-0.06-0.296-0.089-0.607-0.089-0.934c0-0.325,0-0.636,0-0.934c0-0.296,0-0.578,0-0.845s0-0.547,0-0.845
		c-0.06-0.236-0.089-0.503-0.089-0.8c0-0.296,0-0.563,0-0.8c-0.06-0.474-0.104-0.948-0.134-1.423
		c-0.03-0.474-0.044-0.918-0.044-1.334c0-0.474,0-0.889,0-1.245c0-0.356,0-0.711,0-1.067c0-0.533,0.014-1.007,0.044-1.422
		c0.029-0.414,0.074-0.741,0.134-0.979c0.118-0.296,0.236-0.518,0.355-0.667c0.118-0.147,0.296-0.223,0.534-0.223h0.089h0.178h0.355
		l0.267-0.089h3.557h0.356h0.267c0.711,0,1.334,0.06,1.867,0.178c0.533,0.12,0.918,0.327,1.156,0.623
		c0.296,0.238,0.518,0.578,0.667,1.022c0.146,0.445,0.222,0.934,0.222,1.467c0,0.534-0.044,1.112-0.133,1.734
		c-0.089,0.622-0.193,1.289-0.312,2c-0.119,0.593-0.253,1.245-0.4,1.957c-0.148,0.711-0.282,1.453-0.399,2.223
		c0.711-0.889,1.407-1.748,2.089-2.579c0.682-0.83,1.319-1.601,1.912-2.312c0.651-0.711,1.186-1.363,1.601-1.956
		c0.414-0.592,0.74-1.096,0.979-1.512l-0.089-0.267v-0.355c0-0.178,0.014-0.355,0.044-0.534c0.029-0.178,0.074-0.385,0.134-0.622
		c0.059-0.178,0.133-0.385,0.222-0.623c0.089-0.236,0.163-0.474,0.223-0.711c0.178-0.474,0.414-0.903,0.711-1.29
		c0.297-0.385,0.623-0.785,0.979-1.2c0.355-0.356,0.712-0.637,1.067-0.845c0.355-0.207,0.711-0.312,1.066-0.312h3.558
		c0.058,0,0.118,0,0.178,0c0.059,0,0.118,0.031,0.178,0.089c0.118,0.06,0.207,0.089,0.267,0.089c0.059,0,0.118,0.016,0.178,0.044
		c0.059,0.031,0.118,0.045,0.178,0.045c0,0.06,0.029,0.104,0.089,0.133c0.059,0.03,0.118,0.044,0.179,0.044
		c0.117,1.482,0.296,2.787,0.533,3.913c0.236,1.126,0.503,2.045,0.8,2.756c0.296,0.711,0.623,1.32,0.979,1.823
		c0.355,0.504,0.711,0.904,1.067,1.2c0.236,0.178,0.474,0.327,0.711,0.445c0.236,0.119,0.474,0.208,0.712,0.267
		c0.235,0.06,0.458,0.104,0.667,0.133c0.207,0.031,0.399,0.044,0.577,0.044c0.059,0,0.118,0,0.178,0c0.059,0,0.118,0,0.179,0
		c0.058,0.06,0.118,0.089,0.178,0.089c0.058,0,0.118,0,0.178,0c0.118,0.06,0.191,0.134,0.222,0.223
		c0.029,0.089,0.045,0.193,0.045,0.311c-0.119,0.297-0.297,0.564-0.533,0.8c-0.238,0.238-0.534,0.416-0.89,0.534
		c-0.355,0.178-0.711,0.297-1.067,0.355c-0.355,0.06-0.771,0.089-1.244,0.089h-3.558c-0.178,0-0.355,0-0.533,0s-0.355,0-0.533,0
		s-0.356-0.029-0.534-0.089c-0.178-0.058-0.355-0.118-0.533-0.178c-0.711-0.118-1.378-0.311-2.001-0.578
		c-0.622-0.267-1.23-0.578-1.822-0.934l-0.089-0.089c-0.061,0-0.12-0.029-0.179-0.089v0.089c-0.06,0-0.089,0.031-0.089,0.089
		c-0.119,0.178-0.253,0.371-0.399,0.578c-0.149,0.208-0.282,0.4-0.4,0.578c-0.178,0.238-0.342,0.445-0.489,0.623
		c-0.148,0.178-0.282,0.356-0.4,0.534c-0.119,0.178-0.253,0.371-0.399,0.578c-0.149,0.208-0.282,0.4-0.4,0.578
		c-0.178,0.238-0.342,0.445-0.489,0.623c-0.148,0.178-0.282,0.356-0.4,0.534c-0.711,1.009-1.394,2.045-2.045,3.112
		c-0.653,1.067-1.305,2.194-1.956,3.379c-0.653,1.127-1.216,2.343-1.689,3.646c-0.476,1.305-0.86,2.667-1.156,4.09h-0.267
		l-0.267,0.089l-0.356,0.089h-3.557h-0.267c-0.476-0.06-0.92-0.119-1.334-0.178c-0.415-0.059-0.801-0.207-1.156-0.445
		c-0.355-0.236-0.578-0.489-0.667-0.756c-0.089-0.267-0.044-0.547,0.134-0.845v-0.089C266.111,55.547,266.155,54.762,266.186,54.02z
		"/>
	<path fill="#0F8DBB" d="M335.19,34.591c0.029,0,0.073-0.029,0.133-0.089c0.059,0,0.118,0,0.179,0c0.117,0,0.222-0.014,0.311-0.044
		c0.089-0.029,0.192-0.073,0.312-0.133c0.059-0.058,0.147-0.103,0.267-0.133c0.118-0.029,0.207-0.074,0.267-0.133h3.558l0.089,0.534
		c0,0.06,0,0.119,0,0.178c0,0.06,0.028,0.148,0.089,0.267c0,0.06,0,0.12,0,0.178c0,0.06,0,0.149,0,0.267
		c0.058,0.533,0.118,1.171,0.178,1.912c0.059,0.742,0.118,1.556,0.178,2.445c0.059,0.949,0.133,1.883,0.223,2.801
		c0.089,0.92,0.191,1.882,0.311,2.89c0.118,1.483,0.296,2.89,0.534,4.224c0.235,1.334,0.533,2.594,0.889,3.779
		c0.296,1.245,0.696,2.165,1.2,2.756c0.503,0.593,1.052,0.889,1.646,0.889h0.089h0.178c0.178,0.12,0.312,0.253,0.4,0.4
		c0.089,0.148,0.103,0.282,0.044,0.4c-0.06,0.12-0.163,0.238-0.311,0.356c-0.149,0.119-0.312,0.236-0.489,0.355
		c-0.178,0.118-0.371,0.236-0.578,0.356c-0.208,0.118-0.46,0.236-0.756,0.355c-0.119,0.059-0.237,0.118-0.355,0.178
		c-0.12,0.059-0.237,0.118-0.355,0.178c-0.179,0.058-0.327,0.118-0.445,0.178c-0.119,0.058-0.237,0.118-0.355,0.178
		c-0.178,0.059-0.342,0.103-0.489,0.133c-0.148,0.029-0.282,0.074-0.399,0.133c-0.179,0-0.342,0.014-0.489,0.044
		c-0.149,0.029-0.282,0.074-0.4,0.134c-0.237,0.118-0.476,0.191-0.711,0.222c-0.238,0.029-0.445,0.044-0.623,0.044l-3.557,0.089
		l-0.533-0.089l-0.179-0.178c-0.178-0.297-0.326-0.623-0.444-0.979c-0.119-0.355-0.237-0.742-0.355-1.156
		c-0.06-0.414-0.134-0.859-0.223-1.334c-0.089-0.474-0.193-0.978-0.311-1.512l-0.09-0.178v-0.267
		c-0.06-0.356-0.119-0.696-0.178-1.022c-0.06-0.325-0.148-0.637-0.267-0.934c-0.475,0.416-1.009,0.816-1.601,1.201
		c-0.593,0.386-1.245,0.756-1.956,1.111c-1.482,0.711-2.994,1.305-4.535,1.779c-1.542,0.475-3.112,0.86-4.713,1.156
		c-0.653,0.059-1.305,0.133-1.956,0.222c-0.653,0.089-1.305,0.163-1.956,0.223c-0.594,0.058-1.201,0.103-1.823,0.133
		c-0.622,0.029-1.231,0.044-1.823,0.044l-3.557,0.089c-0.594-0.06-1.156-0.104-1.689-0.133c-0.533-0.031-1.038-0.075-1.512-0.133
		c-0.476-0.06-0.934-0.134-1.378-0.223c-0.445-0.089-0.845-0.164-1.201-0.222c-0.889-0.296-1.645-0.667-2.268-1.111
		c-0.622-0.445-1.111-0.963-1.467-1.556c-0.415-0.534-0.712-1.112-0.89-1.734c-0.178-0.622-0.267-1.289-0.267-2
		c0-0.534,0.045-1.067,0.134-1.601c0.089-0.534,0.222-1.096,0.4-1.689c0.178-0.534,0.385-1.096,0.622-1.689
		c0.236-0.592,0.533-1.186,0.89-1.779c0.829-1.363,1.836-2.712,3.022-4.046c1.186-1.334,2.52-2.652,4.002-3.957
		c1.541-1.245,3.082-2.341,4.624-3.29c1.541-0.948,3.142-1.719,4.802-2.312c0.474-0.178,0.963-0.34,1.467-0.489
		c0.503-0.147,0.992-0.251,1.468-0.311c0.474-0.118,0.963-0.192,1.467-0.222c0.503-0.029,0.992-0.044,1.468-0.044h3.557
		c0.829,0,1.63,0.089,2.4,0.267s1.512,0.416,2.224,0.711c0.651,0.297,1.303,0.697,1.956,1.2c0.651,0.504,1.245,1.083,1.778,1.734
		C335.115,34.591,335.16,34.591,335.19,34.591z M331.811,47.618c0.029-0.147,0.044-0.34,0.044-0.578c0-0.118,0-0.222,0-0.311
		s0.029-0.192,0.089-0.311c0-0.059,0-0.147,0-0.267c0-0.118,0-0.236,0-0.355c0-0.356-0.015-0.741-0.044-1.156
		c-0.031-0.414-0.075-0.829-0.134-1.245c-0.06-0.414-0.104-0.83-0.133-1.245c-0.031-0.414-0.075-0.83-0.134-1.245
		c-0.06-0.236-0.104-0.458-0.134-0.667c-0.03-0.207-0.074-0.43-0.133-0.667c-0.06-0.178-0.104-0.37-0.134-0.578
		c-0.03-0.207-0.044-0.429-0.044-0.667c-0.594-0.829-1.216-1.556-1.867-2.178c-0.653-0.623-1.365-1.112-2.135-1.467
		c-0.533-0.236-1.066-0.445-1.601-0.623c-0.533-0.178-1.038-0.296-1.512-0.356c-0.711,0.06-1.394,0.193-2.045,0.4
		c-0.653,0.208-1.305,0.431-1.956,0.667c-0.949,0.416-1.794,0.831-2.534,1.245c-0.742,0.416-1.438,0.86-2.09,1.334l-0.534,0.534
		l-0.533,0.444c-0.593,0.593-1.142,1.245-1.645,1.957c-0.505,0.711-0.965,1.482-1.379,2.312c-0.415,0.831-0.742,1.675-0.978,2.534
		c-0.238,0.86-0.416,1.705-0.534,2.534c-0.06,0.12-0.089,0.238-0.089,0.356c0,0.119,0,0.237,0,0.355c0,0.06,0,0.149,0,0.267
		c0,0.06,0,0.12,0,0.178c0,0.06,0,0.119,0,0.178c0,0.297,0,0.578,0,0.845s0.029,0.549,0.089,0.845
		c0.059,0.238,0.118,0.489,0.178,0.756c0.059,0.267,0.118,0.549,0.178,0.845c0.296,0.711,0.682,1.334,1.156,1.867
		c0.474,0.534,1.097,0.979,1.867,1.334c0.534,0.238,1.097,0.431,1.689,0.578c0.592,0.148,1.186,0.253,1.779,0.311
		c0.117,0,0.207,0,0.267,0c0.058,0,0.147,0,0.267,0c0.059,0,0.133-0.014,0.222-0.044c0.09-0.029,0.163-0.044,0.223-0.044
		c0.474-0.118,0.979-0.236,1.512-0.355c0.533-0.118,1.067-0.267,1.601-0.445c1.008-0.296,2.03-0.696,3.068-1.2
		c1.036-0.503,2.029-1.052,2.979-1.645c1.007-0.652,1.912-1.348,2.712-2.09c0.801-0.741,1.557-1.556,2.268-2.445v-0.089
		C331.736,47.9,331.78,47.767,331.811,47.618z"/>
	<path fill="#0F8DBB" d="M353.863,31.745c-0.03-0.059-0.044-0.118-0.044-0.178c-0.06,0-0.089-0.029-0.089-0.089
		c0-0.059,0-0.118,0-0.178l-0.089-0.533l0.267-0.711c0.118-0.118,0.251-0.192,0.4-0.222c0.147-0.029,0.311-0.045,0.489-0.045h3.557
		c0.059,0,0.118,0,0.178,0c0.059,0,0.147,0,0.267,0c0.059,0.06,0.134,0.089,0.223,0.089s0.162,0,0.222,0
		c0.118,0.06,0.268,0.104,0.445,0.133c0.178,0.03,0.355,0.075,0.533,0.133c0.118,0.06,0.223,0.104,0.312,0.133
		c0.089,0.031,0.191,0.075,0.311,0.133c0.059,0.06,0.147,0.104,0.268,0.133c0.117,0.031,0.207,0.075,0.267,0.134
		c0.118,0.06,0.222,0.119,0.311,0.178c0.089,0.06,0.163,0.089,0.223,0.089c0.118,0.06,0.223,0.12,0.312,0.178
		c0.089,0.06,0.162,0.12,0.222,0.178l0.445,0.356l0.267,0.355c0.118,0.06,0.207,0.133,0.267,0.223
		c0.059,0.089,0.118,0.222,0.178,0.4c0.059,0.178,0.103,0.386,0.134,0.623c0.029,0.237,0.044,0.504,0.044,0.8
		c0,0.534-0.03,1.111-0.089,1.734c-0.06,0.623-0.148,1.29-0.267,2.001c-0.06,0.355-0.119,0.711-0.178,1.067
		c-0.06,0.355-0.089,0.742-0.089,1.156c-0.06,0.356-0.12,0.727-0.178,1.112c-0.06,0.386-0.12,0.786-0.178,1.2l-0.089,0.178v0.089
		c1.303-2.015,2.563-3.66,3.778-4.936c1.215-1.274,2.415-2.208,3.602-2.801c1.837-0.948,3.424-1.659,4.758-2.134
		c1.334-0.474,2.415-0.711,3.245-0.711h3.558c0.058,0,0.118,0,0.178,0c0.058,0,0.118,0,0.178,0c0.118,0,0.207,0,0.267,0h0.444h0.089
		h0.178c0.89,0,1.659,0.312,2.313,0.934c0.651,0.623,1.186,1.556,1.601,2.801c0.414,1.245,0.8,2.55,1.156,3.913
		c0.355,1.364,0.651,2.816,0.889,4.357c0,0.06,0,0.148,0,0.267c0,0.12,0.029,0.208,0.089,0.267c0,0.12,0.015,0.223,0.045,0.312
		c0.029,0.089,0.044,0.193,0.044,0.311c0,0.06,0,0.149,0,0.267c0,0.12,0.029,0.208,0.089,0.267c0,0.119,0.015,0.222,0.045,0.311
		c0.029,0.089,0.044,0.193,0.044,0.312c0.179,1.126,0.386,2.209,0.623,3.246c0.236,1.038,0.474,2,0.711,2.89
		c0.236,0.949,0.519,1.705,0.845,2.268c0.325,0.564,0.696,0.934,1.112,1.112c0.296,0.119,0.533,0.252,0.711,0.4
		c0.178,0.149,0.296,0.282,0.355,0.4c0.118,0.178,0.178,0.342,0.178,0.489c0,0.149-0.03,0.282-0.089,0.4
		c-0.119,0.237-0.297,0.46-0.533,0.667c-0.237,0.208-0.533,0.37-0.89,0.489c-0.178,0.118-0.355,0.207-0.533,0.267
		c-0.178,0.058-0.355,0.147-0.533,0.267c-0.238,0.058-0.445,0.133-0.623,0.222s-0.355,0.163-0.533,0.222
		c-0.237,0.059-0.46,0.103-0.667,0.134c-0.208,0.029-0.4,0.073-0.578,0.133c-0.06,0-0.133,0-0.222,0
		c-0.09,0-0.193,0.029-0.312,0.089c-0.06,0-0.134,0-0.223,0s-0.164,0-0.222,0l-3.558,0.089c-0.237-0.06-0.46-0.104-0.667-0.133
		c-0.208-0.031-0.37-0.075-0.488-0.133c-0.179-0.06-0.298-0.149-0.356-0.267c-0.06-0.119-0.089-0.267-0.089-0.444
		c-0.06-0.416-0.164-0.918-0.311-1.512c-0.149-0.592-0.312-1.334-0.489-2.223c-0.06-0.474-0.148-0.934-0.267-1.378
		c-0.12-0.444-0.209-0.874-0.268-1.289c-0.119-0.474-0.222-0.948-0.311-1.423c-0.089-0.474-0.193-0.948-0.312-1.423
		c-0.06-0.236-0.119-0.474-0.178-0.711c-0.06-0.236-0.119-0.474-0.178-0.711c-0.06-0.296-0.12-0.578-0.178-0.845
		c-0.06-0.267-0.12-0.518-0.178-0.756c-0.179-0.533-0.342-1.067-0.489-1.601c-0.148-0.534-0.282-1.067-0.4-1.601
		c-0.119-0.474-0.237-0.934-0.355-1.378c-0.12-0.444-0.237-0.845-0.355-1.2c-0.238-0.889-0.534-1.645-0.89-2.268
		s-0.742-1.141-1.156-1.556c-0.06-0.059-0.133-0.118-0.222-0.178c-0.089-0.059-0.164-0.118-0.223-0.178
		c-0.119-0.059-0.208-0.118-0.267-0.178c-0.06-0.058-0.148-0.118-0.267-0.178c-0.12,0.06-0.253,0.12-0.4,0.178
		c-0.148,0.06-0.282,0.149-0.4,0.267c-0.533,0.297-1.053,0.653-1.556,1.067c-0.505,0.416-0.994,0.889-1.468,1.423
		c-0.889,0.949-1.733,2-2.534,3.157c-0.8,1.156-1.616,2.416-2.445,3.779c-0.771,1.422-1.512,2.845-2.223,4.268
		c-0.712,1.423-1.334,2.905-1.868,4.446c-0.06,0.178-0.133,0.355-0.222,0.533c-0.089,0.178-0.164,0.356-0.223,0.534
		c-0.06,0.06-0.104,0.133-0.133,0.222c-0.031,0.089-0.045,0.164-0.045,0.223c-0.06,0.119-0.104,0.208-0.134,0.267
		c-0.03,0.06-0.044,0.148-0.044,0.267c-0.06,0.12-0.148,0.223-0.267,0.312c-0.12,0.089-0.238,0.193-0.355,0.311
		c-0.061,0.06-0.134,0.104-0.223,0.133c-0.089,0.031-0.164,0.044-0.223,0.044c-0.119,0-0.208,0-0.267,0c-0.06,0-0.148,0-0.267,0
		h-3.557h-0.178h-0.09c-0.297,0-0.577-0.044-0.845-0.133c-0.267-0.089-0.52-0.192-0.756-0.311c-0.237-0.118-0.415-0.267-0.533-0.445
		c-0.119-0.178-0.178-0.385-0.178-0.623c0-0.474,0-0.947,0-1.422c0-0.474,0-0.948,0-1.423c0-0.474,0-0.963,0-1.467
		c0-0.503,0.029-1.022,0.089-1.556c0-0.474,0-0.963,0-1.467c0-0.503,0-1.022,0-1.556c0-0.236,0-0.474,0-0.711
		c0-0.236,0.029-0.503,0.089-0.8c0-0.236,0-0.474,0-0.711c0-0.236,0-0.474,0-0.711c0-0.296,0-0.607,0-0.934
		c0-0.325,0.029-0.636,0.089-0.934c0-0.296,0-0.607,0-0.934c0-0.325,0-0.636,0-0.934c0-0.296,0-0.578,0-0.845
		c0-0.267,0.029-0.548,0.089-0.845c0-0.236,0-0.503,0-0.8c0-0.296,0-0.563,0-0.8c0-0.355,0-0.681,0-0.978c0-0.296,0-0.592,0-0.889
		c-0.06-0.296-0.089-0.578-0.089-0.845s0-0.518,0-0.756c-0.06-0.474-0.104-0.889-0.133-1.245c-0.031-0.355-0.075-0.651-0.134-0.889
		v-0.089C353.937,31.865,353.892,31.805,353.863,31.745z"/>
	<path fill="#0F8DBB" d="M414.418,33.346c0.089,0,0.191-0.029,0.311-0.089c0.059,0,0.147-0.014,0.268-0.044
		c0.118-0.029,0.207-0.044,0.267-0.044h0.533c0.118,0,0.223,0,0.312,0s0.191-0.029,0.312-0.089c0.178,0,0.34,0,0.488,0
		c0.147,0,0.312-0.029,0.489-0.089c0.118,0,0.267,0,0.444,0c0.179,0,0.356,0,0.534,0s0.355,0,0.533,0s0.325-0.029,0.444-0.089
		c0.178,0,0.341,0,0.489,0c0.147,0,0.281,0,0.4,0h3.557c0.296,0,0.578,0.016,0.845,0.044c0.267,0.031,0.519,0.075,0.756,0.134
		l0.623,0.355c-0.178,0.534-0.534,0.978-1.067,1.334c-0.533,0.355-1.245,0.623-2.134,0.8c-0.89,0.237-2.121,0.4-3.69,0.489
		c-1.571,0.089-3.483,0.134-5.735,0.134c0,0.711,0,1.482,0,2.312c0,0.831,0,1.689,0,2.579c0,0.949,0,1.883,0,2.801
		c0,0.92,0,1.883,0,2.89c0,1.245,0,2.46,0,3.646c0,1.187,0,2.342,0,3.468c0,1.127,0,2.134,0,3.023s0,1.63,0,2.223
		c0,0.118-0.045,0.236-0.134,0.355c-0.089,0.118-0.223,0.207-0.4,0.267c-0.178,0.058-0.371,0.103-0.578,0.133
		c-0.208,0.029-0.431,0.044-0.667,0.044l-3.557,0.089h-0.533l-0.533-0.089c-0.356-0.12-0.698-0.222-1.023-0.312
		c-0.326-0.089-0.638-0.193-0.934-0.311c-0.237-0.12-0.431-0.253-0.578-0.4c-0.148-0.149-0.222-0.282-0.222-0.4
		c0-0.236,0.014-0.667,0.044-1.29c0.029-0.622,0.074-1.467,0.134-2.534c0.118-1.007,0.223-2.074,0.312-3.201
		c0.089-1.125,0.162-2.312,0.222-3.557v-0.356l0.089-0.355c0.059-1.186,0.118-2.326,0.178-3.424
		c0.059-1.096,0.118-2.178,0.179-3.246c0.117-1.007,0.191-1.881,0.222-2.623c0.029-0.741,0.045-1.319,0.045-1.734
		c-0.061,0-0.12,0-0.178,0c-0.061,0-0.089-0.029-0.089-0.089c-0.061,0-0.12,0-0.179,0c-0.06,0-0.119,0-0.178,0
		c-0.06,0-0.119,0-0.178,0c-0.06,0-0.089-0.029-0.089-0.089c-0.06,0-0.119,0-0.178,0c-0.06,0-0.119,0-0.178,0
		c-0.119,0-0.237,0-0.355,0c-0.12,0-0.238,0-0.356,0h-0.533h-0.533h-0.445c-0.771,0-1.497-0.029-2.178-0.089
		c-0.683-0.058-1.29-0.147-1.823-0.267c-0.594-0.118-1.022-0.414-1.289-0.889c-0.268-0.474-0.4-1.096-0.4-1.868v-0.178l0.089-0.267
		v-0.178v-0.267l0.267-0.267l0.355-0.089h3.558c0.117,0,0.28,0.015,0.488,0.044c0.207,0.03,0.43,0.104,0.667,0.222
		c0.118,0.06,0.236,0.104,0.356,0.133c0.117,0.031,0.235,0.044,0.355,0.044c0.178,0.06,0.325,0.104,0.444,0.134
		c0.118,0.03,0.267,0.075,0.444,0.133c0.296,0.06,0.578,0.133,0.845,0.222c0.268,0.089,0.548,0.193,0.845,0.311
		c0.059,0,0.104-0.014,0.134-0.044c0.029-0.029,0.073-0.044,0.134-0.044c0.058-0.058,0.117-0.089,0.178-0.089
		c0.058-0.236,0.103-0.489,0.133-0.756c0.029-0.267,0.045-0.547,0.045-0.845c0-0.296,0-0.592,0-0.889c0-0.296,0-0.592,0-0.889
		c0-0.178,0-0.356,0-0.534s0-0.355,0-0.533c-0.06-0.178-0.089-0.37-0.089-0.578c0-0.207,0-0.4,0-0.578s0-0.355,0-0.534
		c0-0.178,0-0.385,0-0.622c-0.06-0.178-0.089-0.37-0.089-0.578c0-0.207,0-0.4,0-0.578c-0.061-0.296-0.104-0.592-0.134-0.889
		c-0.03-0.296-0.044-0.592-0.044-0.889c0-0.178,0-0.34,0-0.489c0-0.147,0-0.311,0-0.489c-0.061-0.118-0.089-0.251-0.089-0.4
		c0-0.147,0-0.311,0-0.489c-0.061-0.651-0.12-1.274-0.179-1.867c-0.06-0.592-0.119-1.156-0.178-1.689
		c-0.06-0.534-0.089-1.007-0.089-1.423c0-0.414,0-0.741,0-0.978c0.059-0.059,0.118-0.103,0.178-0.133
		c0.059-0.029,0.118-0.044,0.178-0.044c0-0.059,0.029-0.103,0.09-0.133c0.058-0.029,0.117-0.045,0.178-0.045
		c0.118-0.058,0.235-0.103,0.355-0.133c0.118-0.029,0.236-0.074,0.355-0.133h3.557c0.296,0,0.592,0.06,0.89,0.178
		c0.296,0.12,0.622,0.267,0.979,0.445c0.178,0.06,0.34,0.148,0.488,0.267c0.147,0.12,0.312,0.208,0.489,0.267
		c0.178,0.119,0.355,0.222,0.533,0.311c0.179,0.089,0.356,0.193,0.534,0.311l0.178,0.178l0.178,0.089
		c0.178,0.119,0.355,0.267,0.533,0.444c0.179,0.178,0.296,0.386,0.356,0.623c0.118,0.238,0.191,0.504,0.222,0.8
		c0.029,0.297,0.045,0.623,0.045,0.978c0,0.356-0.016,0.742-0.045,1.156c-0.03,0.416-0.075,0.86-0.133,1.334
		c-0.061,0.237-0.104,0.475-0.134,0.711c-0.03,0.238-0.044,0.476-0.044,0.711c-0.061,0.238-0.104,0.475-0.134,0.711
		c-0.03,0.238-0.075,0.475-0.134,0.711c-0.06,0.416-0.119,0.815-0.178,1.201c-0.06,0.386-0.119,0.786-0.178,1.2
		c-0.06,0.416-0.104,0.815-0.133,1.201c-0.031,0.386-0.045,0.786-0.045,1.2c-0.06,0.178-0.089,0.342-0.089,0.489
		c0,0.148,0,0.282,0,0.4c0,0.12,0,0.253,0,0.4c0,0.148,0,0.282,0,0.4c0,0.178,0,0.356,0,0.534s0,0.356,0,0.534s0,0.355,0,0.533
		c0,0.178,0.029,0.356,0.089,0.534h-3.557v-0.089h3.557C414.225,33.346,414.33,33.346,414.418,33.346z"/>
	<path fill="#0F8DBB" d="M462.258,34.591c0.029,0,0.073-0.029,0.133-0.089c0.059,0,0.118,0,0.179,0c0.117,0,0.222-0.014,0.311-0.044
		c0.089-0.029,0.192-0.073,0.312-0.133c0.059-0.058,0.147-0.103,0.267-0.133c0.118-0.029,0.207-0.074,0.267-0.133h3.558l0.089,0.534
		c0,0.06,0,0.119,0,0.178c0,0.06,0.028,0.148,0.089,0.267c0,0.06,0,0.12,0,0.178c0,0.06,0,0.149,0,0.267
		c0.058,0.533,0.118,1.171,0.178,1.912c0.059,0.742,0.118,1.556,0.178,2.445c0.059,0.949,0.133,1.883,0.223,2.801
		c0.089,0.92,0.191,1.882,0.311,2.89c0.118,1.483,0.296,2.89,0.534,4.224c0.235,1.334,0.533,2.594,0.889,3.779
		c0.296,1.245,0.696,2.165,1.2,2.756c0.503,0.593,1.052,0.889,1.646,0.889h0.089h0.178c0.178,0.12,0.312,0.253,0.4,0.4
		c0.089,0.148,0.103,0.282,0.044,0.4c-0.06,0.12-0.163,0.238-0.311,0.356c-0.149,0.119-0.312,0.236-0.489,0.355
		c-0.178,0.118-0.371,0.236-0.578,0.356c-0.208,0.118-0.46,0.236-0.756,0.355c-0.119,0.059-0.237,0.118-0.355,0.178
		c-0.12,0.059-0.237,0.118-0.355,0.178c-0.179,0.058-0.327,0.118-0.445,0.178c-0.119,0.058-0.237,0.118-0.355,0.178
		c-0.178,0.059-0.342,0.103-0.489,0.133c-0.148,0.029-0.282,0.074-0.399,0.133c-0.179,0-0.342,0.014-0.489,0.044
		c-0.149,0.029-0.282,0.074-0.4,0.134c-0.237,0.118-0.476,0.191-0.711,0.222c-0.238,0.029-0.445,0.044-0.623,0.044l-3.557,0.089
		l-0.533-0.089l-0.179-0.178c-0.178-0.297-0.326-0.623-0.444-0.979c-0.119-0.355-0.237-0.742-0.355-1.156
		c-0.06-0.414-0.134-0.859-0.223-1.334c-0.089-0.474-0.193-0.978-0.311-1.512l-0.09-0.178v-0.267
		c-0.06-0.356-0.119-0.696-0.178-1.022c-0.06-0.325-0.148-0.637-0.267-0.934c-0.475,0.416-1.009,0.816-1.601,1.201
		c-0.593,0.386-1.245,0.756-1.956,1.111c-1.482,0.711-2.994,1.305-4.535,1.779c-1.542,0.475-3.112,0.86-4.713,1.156
		c-0.653,0.059-1.305,0.133-1.956,0.222c-0.653,0.089-1.305,0.163-1.956,0.223c-0.594,0.058-1.201,0.103-1.823,0.133
		c-0.622,0.029-1.231,0.044-1.823,0.044l-3.557,0.089c-0.594-0.06-1.156-0.104-1.689-0.133c-0.533-0.031-1.038-0.075-1.512-0.133
		c-0.476-0.06-0.934-0.134-1.378-0.223c-0.445-0.089-0.845-0.164-1.201-0.222c-0.889-0.296-1.645-0.667-2.268-1.111
		c-0.622-0.445-1.111-0.963-1.467-1.556c-0.415-0.534-0.712-1.112-0.89-1.734c-0.178-0.622-0.267-1.289-0.267-2
		c0-0.534,0.045-1.067,0.134-1.601c0.089-0.534,0.222-1.096,0.4-1.689c0.178-0.534,0.385-1.096,0.622-1.689
		c0.236-0.592,0.533-1.186,0.89-1.779c0.829-1.363,1.836-2.712,3.022-4.046c1.186-1.334,2.52-2.652,4.002-3.957
		c1.541-1.245,3.082-2.341,4.624-3.29c1.541-0.948,3.142-1.719,4.802-2.312c0.474-0.178,0.963-0.34,1.467-0.489
		c0.503-0.147,0.992-0.251,1.468-0.311c0.474-0.118,0.963-0.192,1.467-0.222c0.503-0.029,0.992-0.044,1.468-0.044h3.557
		c0.829,0,1.63,0.089,2.4,0.267s1.512,0.416,2.224,0.711c0.651,0.297,1.303,0.697,1.956,1.2c0.651,0.504,1.245,1.083,1.778,1.734
		C462.183,34.591,462.228,34.591,462.258,34.591z M458.879,47.618c0.029-0.147,0.044-0.34,0.044-0.578c0-0.118,0-0.222,0-0.311
		s0.029-0.192,0.089-0.311c0-0.059,0-0.147,0-0.267c0-0.118,0-0.236,0-0.355c0-0.356-0.015-0.741-0.044-1.156
		c-0.031-0.414-0.075-0.829-0.134-1.245c-0.06-0.414-0.104-0.83-0.133-1.245c-0.031-0.414-0.075-0.83-0.134-1.245
		c-0.06-0.236-0.104-0.458-0.134-0.667c-0.03-0.207-0.074-0.43-0.133-0.667c-0.06-0.178-0.104-0.37-0.134-0.578
		c-0.03-0.207-0.044-0.429-0.044-0.667c-0.594-0.829-1.216-1.556-1.867-2.178c-0.653-0.623-1.365-1.112-2.135-1.467
		c-0.533-0.236-1.066-0.445-1.601-0.623c-0.533-0.178-1.038-0.296-1.512-0.356c-0.711,0.06-1.394,0.193-2.045,0.4
		c-0.653,0.208-1.305,0.431-1.956,0.667c-0.949,0.416-1.794,0.831-2.534,1.245c-0.742,0.416-1.438,0.86-2.09,1.334l-0.534,0.534
		l-0.533,0.444c-0.593,0.593-1.142,1.245-1.645,1.957c-0.505,0.711-0.965,1.482-1.379,2.312c-0.415,0.831-0.742,1.675-0.978,2.534
		c-0.238,0.86-0.416,1.705-0.534,2.534c-0.06,0.12-0.089,0.238-0.089,0.356c0,0.119,0,0.237,0,0.355c0,0.06,0,0.149,0,0.267
		c0,0.06,0,0.12,0,0.178c0,0.06,0,0.119,0,0.178c0,0.297,0,0.578,0,0.845s0.029,0.549,0.089,0.845
		c0.059,0.238,0.118,0.489,0.178,0.756c0.059,0.267,0.118,0.549,0.178,0.845c0.296,0.711,0.682,1.334,1.156,1.867
		c0.474,0.534,1.097,0.979,1.867,1.334c0.534,0.238,1.097,0.431,1.689,0.578c0.592,0.148,1.186,0.253,1.779,0.311
		c0.117,0,0.207,0,0.267,0c0.058,0,0.147,0,0.267,0c0.059,0,0.133-0.014,0.222-0.044c0.09-0.029,0.163-0.044,0.223-0.044
		c0.474-0.118,0.979-0.236,1.512-0.355c0.533-0.118,1.067-0.267,1.601-0.445c1.008-0.296,2.03-0.696,3.068-1.2
		c1.036-0.503,2.029-1.052,2.979-1.645c1.007-0.652,1.912-1.348,2.712-2.09c0.801-0.741,1.557-1.556,2.268-2.445v-0.089
		C458.804,47.9,458.848,47.767,458.879,47.618z"/>
</g>
</svg>
